<svg width="58" height="98" viewBox="0 0 58 98" fill="none" xmlns="http://www.w3.org/2000/svg">
<path d="M29.3759 1.05226C29.2514 1.08765 29.1447 1.3354 29.1447 1.56545C29.1447 2.18482 28.3091 2.16713 28.1491 1.54776C28.0602 1.15844 27.9714 1.12305 27.3847 1.21153C27.0291 1.26462 26.229 1.3708 25.589 1.45927C23.2422 1.77781 21.6955 2.23792 19.5976 3.2466C17.6242 4.20219 16.2552 5.1224 14.6552 6.62659C13.2862 7.88302 11.7217 9.75882 11.7217 10.1127C11.7217 10.2189 11.6506 10.3074 11.5439 10.3074C11.455 10.3074 11.3661 10.3782 11.3661 10.4667C11.3661 10.5552 11.1528 10.9976 10.8861 11.4754C10.0683 12.8911 9.65938 14.236 9.1438 16.9435C8.84156 18.5892 8.78822 22.5709 9.0549 24.2697C9.67715 28.2691 9.81938 29.1008 10.0505 30.2688C10.4239 32.1623 10.3705 35.4007 9.94383 37.0287C9.26825 39.5416 8.0593 42.3199 6.2281 45.5229C5.92587 46.0538 5.46362 46.9386 5.19694 47.4695C4.91248 48.0004 4.6458 48.4605 4.57469 48.4959C4.4858 48.5313 4.43246 48.6198 4.43246 48.7083C4.43246 48.7791 4.16578 49.4338 3.82799 50.1594C3.31241 51.2742 2.77905 52.7607 2.12124 54.9904C2.03235 55.2736 1.9079 55.8753 1.83678 56.3177C1.78345 56.7601 1.659 57.344 1.58788 57.6449C0.698952 60.7063 0.698952 71.9788 1.5701 76.4029C1.659 76.8807 1.83678 77.7655 1.94345 78.3495C2.44126 81.0747 3.06351 83.3221 3.8991 85.3572C4.43246 86.649 5.81919 89.3743 6.05032 89.5866C6.10365 89.6397 6.317 89.9759 6.54812 90.3299C6.76146 90.7015 7.02814 91.0023 7.11703 91.0023C7.20593 91.0023 7.27704 91.0731 7.27704 91.1793C7.27704 91.2678 7.41927 91.4978 7.59706 91.6571C8.16597 92.2234 9.8905 93.4798 10.0861 93.4798C10.175 93.4798 10.2994 93.5506 10.335 93.6214C10.4239 93.8514 12.5928 94.8955 13.7662 95.2671C14.3529 95.4441 14.993 95.6741 15.1885 95.7626C16.3264 96.2581 19.7576 96.966 22.5667 97.2845C25.8024 97.6384 32.8427 97.6384 35.2606 97.2845C39.563 96.6474 40.7897 96.382 43.6343 95.4618C45.021 95.0194 47.0834 94.1699 47.6345 93.8337C47.7767 93.7275 48.0256 93.6037 48.1679 93.5329C48.7012 93.3205 50.7635 91.7279 51.2791 91.1439C51.8303 90.5422 52.3281 89.8344 52.7725 89.0557C53.3237 88.047 54.0348 86.5783 54.0348 86.4367C54.0348 86.3482 54.1593 86.0297 54.3015 85.7642C54.4437 85.4811 54.5682 85.1272 54.5682 84.9856C54.5682 84.8263 54.6393 84.6317 54.7282 84.5432C54.8171 84.437 54.9771 83.9592 55.0837 83.4814C55.2082 82.9859 55.4215 82.1188 55.5638 81.5348C55.706 80.9508 55.9016 80.1014 55.9905 79.6413C56.0793 79.1635 56.2038 78.7034 56.2749 78.5972C56.346 78.4734 56.4527 77.9071 56.5416 77.3054C56.7905 75.2703 57.075 73.3945 57.235 72.5982C57.5016 71.2887 57.6083 65.4312 57.4305 62.6883C57.235 59.8215 56.666 55.946 56.186 54.1941C55.6882 52.3537 54.8526 49.947 54.7104 49.947C54.6393 49.947 54.5682 49.8231 54.5682 49.6816C54.5682 49.3984 53.1814 46.7263 51.8836 44.5497C50.7102 42.55 49.0568 38.763 49.0568 38.0374C49.0568 37.8605 48.9679 37.5596 48.8612 37.365C48.6123 36.8872 48.1679 34.1443 48.1679 32.994C48.1679 32.0915 48.3279 30.8174 48.7368 28.3576C49.8035 21.8808 49.8035 18.6954 48.7546 14.643C48.3101 12.9088 47.5456 10.9976 47.2434 10.8737C47.1545 10.8383 47.1011 10.7321 47.1011 10.6259C47.1011 9.68803 42.6565 4.82156 41.8031 4.82156C41.6964 4.82156 41.5898 4.75078 41.5542 4.67999C41.4475 4.39686 39.563 3.37048 37.9452 2.69801C36.5584 2.13174 34.3183 1.56545 32.256 1.28232C31.4737 1.17614 30.6737 1.03457 30.4781 0.981476C30.1581 0.892998 30.1581 0.892998 30.4426 1.17614C30.7982 1.53006 30.6559 1.99017 30.1759 1.99017C29.8737 1.99017 29.8381 1.90169 29.9448 1.45927C30.0692 0.928391 29.927 0.822212 29.3759 1.05226ZM27.9714 2.27331C28.1314 2.34409 28.2558 2.59184 28.2558 2.87498C28.2558 3.49435 27.7047 3.67131 27.1535 3.2466L26.7802 2.92807L27.1535 2.55644C27.5802 2.13174 27.5802 2.13174 27.9714 2.27331ZM31.3493 2.27331C31.5093 2.34409 31.6337 2.59184 31.6337 2.87498C31.6337 3.56513 31.0293 3.75979 30.5137 3.2466C30.1581 2.89268 30.1581 2.87498 30.4781 2.52105C30.8337 2.13174 30.9226 2.11404 31.3493 2.27331ZM26.4957 3.75979C26.9046 3.98985 26.9224 4.34377 26.5491 4.71539C26.2113 5.06931 26.0335 5.06931 25.6957 4.73309C25.429 4.44994 25.5001 3.95445 25.8379 3.7244C26.0868 3.54743 26.0868 3.54743 26.4957 3.75979ZM33.0205 3.79518C33.3049 4.07832 33.2872 4.37916 32.9671 4.69769C32.6294 5.03392 32.0427 4.89235 31.9004 4.43225C31.6871 3.77749 32.5227 3.29969 33.0205 3.79518ZM24.8957 5.21088C25.0734 5.52942 25.0379 5.63559 24.7001 5.91873C24.0245 6.46732 23.2245 5.65329 23.8467 5.03392C24.1845 4.69769 24.6645 4.78617 24.8957 5.21088ZM34.7094 5.19318C34.8695 5.77716 34.6561 6.078 34.1405 6.02491C33.3583 5.93643 33.3938 4.82156 34.1939 4.82156C34.4783 4.82156 34.6383 4.94544 34.7094 5.19318ZM22.46 5.98952C22.8333 6.36114 22.5311 6.94511 21.9622 6.94511C21.2688 6.94511 21.1621 6.00722 21.82 5.83025C21.9977 5.77716 22.14 5.74177 22.1577 5.72408C22.1755 5.72408 22.3178 5.83025 22.46 5.98952ZM36.5762 6.36114C36.5406 6.75046 36.434 6.85664 36.0784 6.85664C35.7228 6.85664 35.6162 6.75046 35.5806 6.36114C35.5273 5.93643 35.5806 5.88334 36.0784 5.88334C36.5762 5.88334 36.6295 5.93643 36.5762 6.36114ZM20.4332 6.83894C20.6288 7.21056 20.611 7.31673 20.3621 7.56448C20.0243 7.91841 19.5621 7.86532 19.2954 7.44061C19.1532 7.21056 19.1887 7.05129 19.4554 6.78585C19.9354 6.30805 20.1488 6.32574 20.4332 6.83894ZM38.5319 6.89203C38.4963 7.28134 38.3896 7.38752 38.034 7.38752C37.6785 7.38752 37.5718 7.28134 37.5363 6.89203C37.4829 6.46732 37.5363 6.41423 38.034 6.41423C38.5319 6.41423 38.5852 6.46732 38.5319 6.89203ZM40.3097 7.45831C40.6297 7.65297 40.5231 8.36082 40.1497 8.59087C39.9186 8.73244 39.7764 8.69704 39.563 8.48469C38.923 7.86532 39.563 6.98051 40.3097 7.45831ZM18.442 8.30772C18.5131 8.75014 17.962 9.12176 17.5175 8.96249C17.2331 8.85631 17.1264 8.16616 17.3575 7.9361C17.642 7.67066 18.3887 7.91841 18.442 8.30772ZM32.256 8.69704C33.7494 9.01558 34.9939 9.40489 35.1895 9.59956C35.2428 9.65264 35.9184 10.0066 36.7007 10.3959C37.8029 10.9445 38.4785 11.4754 39.8297 12.8026C40.772 13.7405 41.6076 14.6784 41.6609 14.873C41.732 15.0854 41.8742 15.2624 41.9631 15.2624C42.052 15.2624 42.1231 15.3508 42.1231 15.4393C42.1231 15.5455 42.3187 15.9171 42.532 16.2887C43.0654 17.1205 43.9366 19.5625 44.3277 21.2791C44.7544 23.208 44.7188 26.8003 44.2566 28.5168C43.8121 30.1449 42.9232 31.9145 41.8209 33.3656C40.8431 34.6751 38.2652 37.2234 37.2873 37.8605C36.914 38.1082 36.6118 38.3914 36.6118 38.4621C36.6118 38.5506 36.5051 38.6214 36.3629 38.6214C36.2206 38.6214 36.0784 38.6745 36.0428 38.763C35.8828 39.1169 32.3093 41.0989 31.8115 41.0989C31.6515 41.0989 31.4382 41.1874 31.3137 41.3112C31.0293 41.5944 27.9358 41.6121 27.3491 41.3466C27.118 41.2228 26.5668 40.9927 26.1224 40.8157C24.1134 40.0017 19.5621 36.6925 19.5443 36.0201C19.5443 35.9493 19.2421 35.7015 18.8687 35.4715C18.2287 35.0645 16.3086 32.817 16.2019 32.3215C16.1664 32.18 16.0775 32.0738 15.9886 32.0738C15.9174 32.0738 15.793 31.8791 15.7397 31.6314C15.6685 31.3836 15.5441 31.189 15.4552 31.189C15.3485 31.189 15.2774 31.1005 15.2774 30.9943C15.2774 30.8881 15.1707 30.5519 15.0463 30.2511C14.2285 28.3576 14.1396 27.809 14.1574 24.7299C14.1751 21.5976 14.3529 20.4474 15.2419 18.1468C15.7219 16.8727 16.9486 14.7669 17.7664 13.7759C19.0109 12.2717 21.3933 10.3074 21.98 10.3074C22.0866 10.3074 22.2111 10.2543 22.2466 10.1658C22.3178 10.0243 23.42 9.42259 23.6334 9.42259C23.7223 9.42259 24.0067 9.33411 24.2912 9.21024C26.2468 8.39621 29.7314 8.16616 32.256 8.69704ZM42.5498 9.17484C42.7454 9.67034 42.6565 9.88269 42.212 10.1304C41.8209 10.3428 41.732 10.3251 41.5009 10.0243C41.3587 9.8473 41.2342 9.51107 41.2342 9.28102C41.2342 8.96249 41.3231 8.8917 41.8387 8.8917C42.2298 8.8917 42.4787 8.99788 42.5498 9.17484ZM16.6642 9.75882C16.7708 10.4313 16.0775 10.7144 15.5619 10.2012C15.1352 9.79421 15.5085 9.21024 16.1308 9.28102C16.4864 9.31641 16.6286 9.44028 16.6642 9.75882ZM14.8863 11.0506C15.1707 11.3338 15.153 11.6877 14.8507 12.0062C14.4774 12.3602 14.0863 12.3071 13.8551 11.8824C13.6951 11.5992 13.7129 11.44 13.9618 11.1745C14.3174 10.7852 14.5841 10.7498 14.8863 11.0506ZM44.3455 11.3692C44.3455 11.7408 44.2566 11.8116 43.8121 11.8116C43.3676 11.8116 43.2787 11.7408 43.2254 11.3161C43.1721 10.8383 43.2076 10.8206 43.7588 10.8737C44.2566 10.9091 44.3455 10.9976 44.3455 11.3692ZM13.6773 12.7672C13.9085 13.2096 13.7485 13.6166 13.304 13.7582C12.6995 13.9528 12.4328 13.475 12.7173 12.7141C12.8595 12.3248 13.4462 12.3602 13.6773 12.7672ZM45.5011 12.6787C45.8211 13.0857 45.6433 13.7582 45.1988 13.8113C44.7188 13.882 44.4166 13.3689 44.6299 12.8203C44.8077 12.3779 45.1811 12.3071 45.5011 12.6787ZM13.0551 14.7315C13.1262 14.9438 13.0729 15.2093 12.9662 15.3508C12.4862 15.9348 11.5795 15.4393 11.8106 14.7315C11.8817 14.4837 12.0773 14.3775 12.4328 14.3775C12.7884 14.3775 12.984 14.4837 13.0551 14.7315ZM46.5322 14.9438C46.5678 15.2801 46.4967 15.4393 46.2122 15.5278C45.7855 15.6694 45.3233 15.3508 45.3233 14.9084C45.3233 14.4837 45.5011 14.3598 46.0344 14.4129C46.3722 14.4483 46.4967 14.5899 46.5322 14.9438ZM12.2551 16.8196C12.2551 17.4744 11.9528 17.7752 11.5084 17.5452C11.3128 17.439 11.1883 17.1736 11.1883 16.855C11.1883 16.3772 11.2417 16.3241 11.7217 16.3241C12.1839 16.3241 12.2551 16.3949 12.2551 16.8196ZM47.2078 16.7842C47.3678 17.439 46.9411 17.8637 46.4078 17.5275C45.9989 17.2797 45.9278 16.855 46.2478 16.5365C46.6211 16.1649 47.0834 16.2887 47.2078 16.7842ZM11.8995 18.9609C11.8995 19.4564 11.4017 19.7926 11.0461 19.5625C10.6194 19.2971 10.5661 18.7839 10.9217 18.5185C11.3128 18.2176 11.8995 18.5008 11.8995 18.9609ZM47.7234 18.8016C47.8656 19.2794 47.5101 19.7218 47.03 19.651C46.6567 19.5979 46.4611 19.1555 46.6389 18.6954C46.7811 18.3061 47.5989 18.3769 47.7234 18.8016ZM11.6861 21.3145C11.7217 21.6684 11.6506 21.81 11.3483 21.8985C10.8328 22.0577 10.4061 21.633 10.5661 21.1198C10.7439 20.5181 11.615 20.6774 11.6861 21.3145ZM47.7767 20.9605C48.0967 21.2791 48.0256 21.7038 47.6167 21.9515C47.2967 22.1462 47.19 22.1462 46.9056 21.8808C46.7278 21.7215 46.5678 21.4914 46.5678 21.3676C46.5678 21.0844 46.9411 20.7482 47.2789 20.7482C47.4389 20.7482 47.6523 20.8367 47.7767 20.9605ZM46.8878 26.0394C47.03 26.1279 47.1011 26.411 47.0656 26.6941C47.03 27.1365 46.9411 27.2073 46.4967 27.2073C46.1944 27.2073 45.91 27.0835 45.7855 26.8888C45.6255 26.6234 45.6611 26.4995 46.0167 26.2163C46.4789 25.8447 46.55 25.827 46.8878 26.0394ZM12.2551 26.3933C12.6106 27.0658 12.0239 27.6497 11.3483 27.2958C10.975 27.0835 10.9039 26.588 11.2239 26.2694C11.5439 25.9509 12.0417 26.0217 12.2551 26.3933ZM13.1084 32.4631C13.4284 32.7816 13.3573 33.2771 12.984 33.4895C12.7173 33.6134 12.5751 33.5957 12.3617 33.3833C12.0417 33.0825 12.0239 32.9586 12.1839 32.5339C12.3084 32.1977 12.8062 32.1623 13.1084 32.4631ZM46.6567 32.587C46.8167 33.0825 46.5678 33.4895 46.1055 33.4895C45.8033 33.4895 45.6611 33.3656 45.5722 33.0648C45.5188 32.817 45.5188 32.5339 45.59 32.4454C45.7855 32.1269 46.5322 32.2154 46.6567 32.587ZM13.2862 34.7459C13.3396 35.2768 12.9662 35.6661 12.5395 35.5069C12.3617 35.4361 12.2551 35.1883 12.2551 34.7813C12.2551 34.215 12.2906 34.1796 12.7529 34.2327C13.1262 34.2681 13.2507 34.392 13.2862 34.7459ZM46.5678 34.7282C46.5678 35.0468 46.4433 35.3122 46.2478 35.4184C45.8744 35.613 45.6433 35.5069 45.3766 35.0114C45.1277 34.5513 45.43 34.215 46.0878 34.1973C46.4967 34.1973 46.5678 34.2681 46.5678 34.7282ZM46.0344 36.1439C46.0344 36.2324 45.9989 36.3209 45.9633 36.3209C45.91 36.3209 45.8211 36.2324 45.7677 36.1439C45.7144 36.0378 45.75 35.967 45.8389 35.967C45.9455 35.967 46.0344 36.0378 46.0344 36.1439ZM12.9662 36.3209C12.9662 36.4094 12.8951 36.4979 12.7884 36.4979C12.6995 36.4979 12.6106 36.4094 12.6106 36.3209C12.6106 36.2147 12.6995 36.1439 12.7884 36.1439C12.8951 36.1439 12.9662 36.2147 12.9662 36.3209ZM14.0507 36.958C14.3529 37.3296 14.0507 37.8074 13.4462 37.8782C12.9306 37.9489 12.5395 37.4358 12.7173 36.958C12.8595 36.5863 13.7485 36.5863 14.0507 36.958ZM45.9989 37.2057C46.07 37.8074 45.4833 38.1967 44.9677 37.8782C44.5766 37.6304 44.4877 36.9403 44.8433 36.781C44.9499 36.7456 45.2522 36.7102 45.5011 36.7279C45.8389 36.7633 45.9633 36.8695 45.9989 37.2057ZM24.7712 41.2228C24.7001 41.5944 24.5934 41.9306 24.5401 41.9837C24.469 42.0368 24.1845 42.373 23.9178 42.7269C23.2956 43.5587 21.9622 44.3727 21.0021 44.5497C19.6332 44.7797 18.9043 44.532 17.7131 43.3994C17.1086 42.8331 16.6642 42.3199 16.7175 42.2668C16.7886 42.196 17.2153 42.0722 17.6953 42.0014C18.1753 41.9129 19.2421 41.7006 20.0776 41.5413C20.9132 41.382 22.2111 41.1343 22.9578 41.0281C23.7223 40.9042 24.3979 40.745 24.469 40.6919C24.7534 40.391 24.8779 40.6211 24.7712 41.2228ZM35.7939 41.0281C36.5762 41.152 37.8385 41.382 38.5674 41.5413C39.2963 41.6829 40.3275 41.8775 40.8253 41.9483C41.7853 42.1076 42.212 42.3199 41.8209 42.4615C41.6964 42.5146 41.5898 42.6562 41.5898 42.7977C41.5898 42.9393 41.5364 43.0455 41.4475 43.0455C41.3764 43.0455 41.1275 43.2224 40.8786 43.4525C39.9008 44.3196 39.403 44.532 38.2118 44.532C37.2518 44.5497 36.9318 44.4612 36.3095 44.0542C35.5273 43.5587 34.1228 41.8421 34.1228 41.3643C34.1228 41.2228 34.0516 41.0989 33.945 41.0989C33.8561 41.0989 33.8205 40.975 33.8739 40.8334C33.945 40.6919 34.0694 40.6211 34.1583 40.6742C34.265 40.745 34.9939 40.9042 35.7939 41.0281ZM30.2115 43.2932C30.2115 43.6294 30.7626 44.0719 31.2604 44.1426C31.6337 44.1957 31.7049 44.2842 31.7049 44.8859C31.7226 45.7353 32.3982 46.337 33.1272 46.16C33.5538 46.0538 33.8027 45.5229 33.4116 45.5229C33.3227 45.5229 33.2338 45.5937 33.2338 45.6999C33.2338 45.9654 32.5938 45.9123 32.3627 45.6291C32.2027 45.4345 32.2916 45.3637 32.8249 45.2929C33.216 45.2221 33.5183 45.2575 33.5538 45.346C33.5894 45.4522 33.7494 45.5229 33.8916 45.5229C34.105 45.5229 34.1228 45.576 33.9627 45.7707C33.5894 46.2308 34.0694 46.8679 35.1717 47.3457C35.7228 47.5934 36.3629 47.9473 36.594 48.1597C36.9318 48.4605 37.2518 48.5313 38.2296 48.5313C38.8874 48.5313 39.4919 48.6021 39.5452 48.7083C39.5986 48.7968 39.8119 48.8852 40.0075 48.8852C40.4697 48.8852 42.5498 49.6108 42.6209 49.7877C42.6565 49.8762 42.7987 49.947 42.9232 49.947C43.0654 49.947 43.5276 50.1771 43.9543 50.4779C44.3988 50.761 44.8077 51.0088 44.861 51.0088C45.021 51.0088 45.3233 51.2565 46.5145 52.3183C47.4212 53.15 49.0568 55.3444 49.0568 55.7514C49.0568 55.8576 49.199 56.1938 49.359 56.53C49.8924 57.5918 49.9457 57.7157 50.1413 58.4766C50.6213 60.4055 50.6924 61.1487 50.6035 63.5731C50.5146 66.2453 50.3013 67.2539 49.4835 69.0236C49.2524 69.5368 49.0568 69.9792 49.0568 70.0323C49.0568 70.2092 47.8478 72.085 47.2789 72.7752C46.55 73.66 43.9899 76.1375 43.7943 76.1375C43.741 76.1375 43.3321 76.4206 42.8876 76.7568C41.8565 77.5355 42.1231 77.677 44.0966 77.3762C44.8788 77.2523 45.5722 77.1992 45.6255 77.27C45.9278 77.5709 42.3543 81.6233 41.7676 81.6233C41.6787 81.6233 41.5898 81.6941 41.5898 81.8003C41.5898 81.9949 39.3497 83.3398 38.1407 83.8707L37.234 84.2423L37.7318 84.437C38.0163 84.5432 38.3896 84.6317 38.5674 84.6317C38.7452 84.6317 39.4741 84.8617 40.1853 85.1625C40.9142 85.4457 41.5187 85.6934 41.5542 85.6934C41.572 85.6934 41.5898 85.7642 41.5898 85.8704C41.5898 86.2066 40.5231 86.5783 39.5275 86.5783C38.5852 86.5783 36.9318 86.2066 36.2206 85.8527C35.8828 85.6757 35.1895 85.6403 35.1895 85.7819C35.1895 85.835 35.6517 86.3128 36.2206 86.8437C37.6251 88.1709 37.234 88.1178 33.9983 86.5252C33.3938 86.2243 32.8427 86.0297 32.7716 86.0828C32.6827 86.1889 33.0027 87.2507 33.4294 88.2594C33.5005 88.4541 33.5894 88.8434 33.625 89.1442C33.6605 89.5866 33.6072 89.6928 33.2694 89.7282C32.2204 89.8874 30.6026 88.7549 29.8559 87.3215C29.4648 86.5783 29.1447 86.3482 29.1447 86.8437C29.1447 86.9853 29.0736 87.1091 28.9847 87.1091C28.8958 87.1091 28.7536 87.2684 28.7003 87.4631C28.558 87.8878 27.6336 88.8611 26.9935 89.2681C26.4602 89.6043 25.3401 89.8521 25.0912 89.6928C24.9134 89.5866 25.1268 88.1709 25.429 87.5515C25.5179 87.3569 25.6779 86.9322 25.7668 86.5959L25.9268 86.012L25.3757 86.1181C25.0557 86.1712 24.7712 86.2951 24.7001 86.3659C24.629 86.4721 22.78 87.4277 21.6422 87.9586C21.5533 87.994 21.4999 87.9232 21.4999 87.817C21.4999 87.6931 21.9088 87.233 22.3889 86.7906C23.4022 85.8704 23.5623 85.4103 22.7978 85.7111C21.6955 86.1358 19.6154 86.5783 18.762 86.5783C17.8198 86.5783 16.9486 86.1181 17.1975 85.7642C17.3397 85.5519 19.2776 84.7555 20.4332 84.4547L21.2333 84.2246L20.2554 83.8707C19.7221 83.6584 19.2421 83.446 19.1887 83.3752C19.1354 83.3221 18.922 83.216 18.7087 83.1452C18.4776 83.0744 18.2998 82.9328 18.2998 82.8443C18.2998 82.7559 18.2109 82.6851 18.0864 82.6851C17.7842 82.6851 15.8819 81.1809 14.8685 80.1545C13.9085 79.1989 12.6995 77.4116 12.8595 77.2346C12.9306 77.1815 13.6596 77.2346 14.4952 77.3408C15.313 77.4647 16.0775 77.5178 16.1841 77.4647C16.273 77.3939 16.1308 77.1815 15.8641 76.9692C15.5974 76.7568 15.3308 76.5445 15.2774 76.4914C15.2241 76.4383 14.7974 76.0844 14.2996 75.6951C9.81938 72.1735 7.50816 66.9 8.13041 61.6796C8.34376 59.8215 8.43265 59.4853 9.28602 57.291C10.5661 53.9641 12.5928 51.6812 15.5797 50.2125C18.1576 48.956 19.0287 48.6375 20.611 48.4428C21.1444 48.372 21.8733 48.1243 22.2466 47.8942C22.62 47.6642 23.0289 47.4695 23.1711 47.4695C23.3134 47.4695 23.7223 47.3103 24.0601 47.0979C24.6645 46.744 24.789 46.5139 24.7356 45.8238C24.7179 45.6645 24.8245 45.5229 24.949 45.5229C25.0912 45.5229 25.2334 45.4345 25.269 45.3106C25.3223 45.1867 25.5179 45.1513 25.8201 45.2398C26.1046 45.3106 26.2646 45.4345 26.1935 45.5406C26.1402 45.6468 25.8913 45.6822 25.6424 45.6114C25.3223 45.5406 25.2157 45.576 25.269 45.7353C25.3223 45.8592 25.5535 45.983 25.8024 46.0184C26.4246 46.0892 27.0113 45.4522 27.0113 44.7089C27.0113 44.1957 27.0646 44.1249 27.5802 44.0719C27.9891 44.0365 28.2025 43.8772 28.4158 43.4879C28.6469 43.0101 28.7536 42.957 29.447 43.0278C29.9092 43.0632 30.2115 43.1693 30.2115 43.2932ZM14.104 44.1072C13.5529 45.4699 12.3617 47.6819 11.9528 48.1243C11.8284 48.2659 11.5972 48.6021 11.4195 48.8852C11.2595 49.1861 11.0461 49.4161 10.975 49.4161C10.9039 49.4161 10.8328 49.5046 10.8328 49.5931C10.8328 49.6993 10.7439 49.8762 10.655 50.0001C10.5483 50.124 10.1927 50.5841 9.85494 51.0442C9.12602 52.0175 8.36154 52.3183 7.36593 52.0352C6.70812 51.8228 6.477 51.4158 6.63701 50.7256C6.79702 50.1063 7.41927 50.1594 7.65039 50.8318C7.8104 51.2742 7.93485 51.3627 8.41487 51.3627C8.73489 51.3627 9.07268 51.2742 9.19713 51.1504C9.53493 50.8141 9.44603 50.1594 9.03712 49.947C8.69933 49.7523 8.68155 49.77 8.87712 50.1063C9.03712 50.4071 9.01935 50.4956 8.78822 50.5841C7.98819 50.9026 7.5615 50.0886 8.23709 49.4869C8.53932 49.2038 8.69933 48.8675 8.69933 48.5136C8.69933 47.8765 9.19713 46.9386 9.53493 46.9386C9.65938 46.9386 9.76605 47.0271 9.76605 47.1333C9.76605 47.4695 10.1216 47.0979 10.3705 46.5139C10.6016 45.9477 12.3439 44.1072 12.6284 44.1072C12.6995 44.1072 12.7351 44.5673 12.6995 45.1159C12.664 45.6822 12.664 45.9477 12.7173 45.6999C12.8951 44.7974 13.3929 43.6648 13.7485 43.364C14.4596 42.78 14.5663 43.0101 14.104 44.1072ZM44.8077 43.3463C44.9499 43.5233 45.1633 43.8595 45.2699 44.1072C45.7677 45.2398 46.0522 45.7707 45.9455 45.346C45.6611 44.2488 45.6433 44.1072 45.8389 44.1072C46.07 44.1072 46.2833 44.2665 47.2434 45.2044C48.4523 46.3724 49.0568 47.3457 49.0568 48.0712C49.0568 48.319 49.1279 48.5313 49.2168 48.5313C49.3057 48.5313 49.4301 48.7083 49.4657 48.9206C49.5013 49.1507 49.5013 48.8144 49.4479 48.1774C49.359 47.0448 49.3768 47.0271 49.7146 47.328C49.8924 47.5049 50.1591 48.0181 50.2657 48.4782C50.4435 49.133 50.6391 49.4338 51.1191 49.77C52.4525 50.6726 52.5236 51.6635 51.2791 52.0706C50.1768 52.4422 49.2879 51.9113 48.3101 50.3009C48.0967 49.9647 47.759 49.4869 47.5278 49.2392C47.3145 48.9914 46.9589 48.4428 46.7278 48.0004C46.5145 47.558 46.0878 46.8502 45.7855 46.4078C45.2699 45.6645 45.0922 45.3106 44.4166 43.8418C44.2921 43.541 44.1499 43.2578 44.1143 43.1693C43.9899 42.9039 44.5588 43.0632 44.8077 43.3463ZM7.70373 52.6014C7.8104 52.7076 7.89929 53.2031 7.89929 53.7163C7.89929 54.725 7.41927 55.4328 6.74368 55.4328C6.54812 55.4328 6.38811 55.5036 6.38811 55.6098C6.38811 55.6983 6.477 55.7868 6.5659 55.7868C6.8148 55.7868 6.79702 56.6185 6.54812 56.7778C6.44145 56.8309 6.2281 56.7601 6.06809 56.6008C5.83697 56.3884 5.83697 56.2646 5.99698 56.1053C6.37033 55.7337 6.24588 55.4328 5.69474 55.4328C5.10805 55.4328 4.93026 55.2382 4.61025 54.3534C4.41468 53.8225 4.43246 53.6455 4.68136 53.15C4.84137 52.8492 5.16139 52.513 5.37473 52.4245C5.85475 52.2121 7.43705 52.336 7.70373 52.6014ZM53.6792 52.7961C54.1948 53.4155 54.1415 54.4242 53.5903 54.9904C52.897 55.6629 51.7414 55.6275 51.1191 54.8843C50.3724 53.9995 50.5502 52.6191 51.4569 52.3714C52.2214 52.159 53.3059 52.3714 53.6792 52.7961ZM52.6836 55.8929C53.0392 56.0345 53.057 56.3884 52.7192 56.6539C52.5236 56.8132 52.3992 56.7955 52.1858 56.5831C51.6525 56.0345 51.9547 55.6098 52.6836 55.8929ZM53.7681 57.7334C54.0704 58.0696 54.0704 58.105 53.7681 58.4412C53.3948 58.8659 53.1992 58.8836 52.8614 58.5474C52.5592 58.2289 52.5414 57.8749 52.8259 57.5918C53.1281 57.291 53.3948 57.3263 53.7681 57.7334ZM5.96142 57.8041C6.10365 57.9457 6.21032 58.105 6.21032 58.1758C6.21032 58.4235 5.67696 58.7951 5.33917 58.7951C4.84137 58.7951 4.6458 58.105 5.07249 57.7864C5.4814 57.4856 5.64141 57.5033 5.96142 57.8041ZM54.2837 59.8392C54.4793 60.14 53.9281 60.6178 53.537 60.494C53.1103 60.3524 53.0214 59.8746 53.3592 59.5384C53.5548 59.3437 54.0881 59.503 54.2837 59.8392ZM5.41029 59.8392C5.51696 60.1931 5.35695 60.7417 5.14361 60.7417C4.4858 60.7417 4.2369 60.2285 4.66358 59.7684C4.96582 59.4145 5.28584 59.4499 5.41029 59.8392ZM54.5326 62.0336C54.4615 62.6175 53.6081 62.5821 53.537 61.9982C53.5014 61.7681 53.5726 61.5204 53.697 61.4319C54.0526 61.2195 54.6037 61.5911 54.5326 62.0336ZM5.32139 62.0336C5.32139 62.3521 4.94804 62.6883 4.59247 62.6883C4.13022 62.6883 3.95244 61.9805 4.34357 61.6973C4.69914 61.4319 5.32139 61.6619 5.32139 62.0336ZM4.91248 63.6793C5.12583 63.8917 5.14361 64.0332 5.00138 64.3871C4.7347 64.9357 4.37913 64.9357 4.07689 64.3871C3.8991 64.0332 3.8991 63.9094 4.09467 63.6793C4.41468 63.3254 4.57469 63.3254 4.91248 63.6793ZM54.6571 63.7678C54.8348 64.3164 54.3726 64.7411 53.8748 64.4756C53.4481 64.2456 53.3948 63.927 53.7148 63.6085C54.0526 63.2723 54.5326 63.3608 54.6571 63.7678ZM4.93026 65.6967C5.10805 65.9798 5.10805 66.1214 4.93026 66.4045C4.66358 66.8292 4.50358 66.8469 4.148 66.5107C3.84577 66.1922 3.82799 65.9267 4.13022 65.6082C4.43246 65.2543 4.66358 65.2897 4.93026 65.6967ZM54.6571 65.679C54.8882 66.4399 54.3193 66.8469 53.7859 66.2983C53.5726 66.086 53.5548 65.9444 53.6792 65.679C53.9281 65.2543 54.5148 65.2366 54.6571 65.679ZM54.4971 67.7494C54.6571 68.3688 54.177 68.8643 53.7859 68.5281C53.4481 68.2626 53.4126 67.8025 53.7148 67.5017C54.0526 67.1655 54.3726 67.2539 54.4971 67.7494ZM5.14361 67.7317C5.60585 68.2803 4.82359 68.9882 4.30801 68.475C3.97022 68.1388 4.16578 67.4663 4.59247 67.4663C4.77026 67.4663 5.01916 67.5902 5.14361 67.7317ZM5.41029 69.7491C5.65919 70.5454 4.82359 71.0232 4.43246 70.28C4.27245 70.0146 4.29023 69.8553 4.45024 69.6606C4.7347 69.3067 5.28584 69.3598 5.41029 69.7491ZM54.2659 69.7845C54.4082 70.0146 54.3726 70.1561 54.1593 70.3862C53.6081 70.9171 52.8436 70.2446 53.3237 69.6606C53.6081 69.3421 54.017 69.3952 54.2659 69.7845ZM5.94364 71.7134C6.21032 71.9965 6.2281 72.1027 6.03254 72.3328C5.7303 72.6867 5.14361 72.6159 4.89471 72.1912C4.7347 71.9258 4.77026 71.8196 5.03693 71.6072C5.49918 71.2887 5.55251 71.2887 5.94364 71.7134ZM54.0348 71.9788C54.0348 72.5805 52.9148 72.8283 52.7014 72.2974C52.5236 71.8196 53.2348 71.3064 53.697 71.5895C53.8748 71.6957 54.0348 71.8904 54.0348 71.9788ZM6.49478 73.5538C6.85035 73.9254 6.79702 74.3324 6.38811 74.4563C5.7303 74.6687 5.25028 73.9785 5.71252 73.5184C5.99698 73.2353 6.17477 73.253 6.49478 73.5538ZM53.1103 73.8546C53.1814 74.244 52.6659 74.7395 52.3458 74.6156C52.0258 74.4917 51.9903 73.7308 52.3103 73.6069C52.6836 73.4476 53.057 73.5715 53.1103 73.8546ZM7.34816 75.5358C7.52594 75.9782 7.47261 76.1198 7.11703 76.2967C6.63701 76.5622 6.12143 76.1375 6.28144 75.642C6.44145 75.1819 7.18815 75.1111 7.34816 75.5358ZM52.3458 75.7835C52.3458 76.0667 52.2392 76.2436 52.008 76.279C51.5636 76.3675 51.3147 76.0667 51.4569 75.6066C51.6347 75.058 52.3458 75.1819 52.3458 75.7835ZM8.34376 77.4116C8.34376 77.7478 7.75706 78.084 7.50816 77.8717C7.20593 77.6416 7.20593 77.0754 7.50816 76.9692C7.79262 76.863 8.34376 77.1638 8.34376 77.4116ZM51.5458 77.3585C51.5458 78.084 50.5858 78.3495 50.3724 77.6947C50.3013 77.4293 50.3546 77.2523 50.5502 77.0931C50.9413 76.8099 51.5458 76.9869 51.5458 77.3585ZM9.01935 78.6326C9.19713 78.9158 9.19713 79.0573 9.03712 79.252C8.61044 79.7652 7.86373 79.2874 8.07708 78.6149C8.21931 78.1548 8.73489 78.1548 9.01935 78.6326ZM50.4791 78.5265C50.9413 79.0927 50.2124 79.9068 49.679 79.3936C49.3413 79.0573 49.3413 78.8804 49.6968 78.5442C50.0346 78.1902 50.1946 78.1902 50.4791 78.5265ZM10.0861 79.8891C10.4061 80.2076 10.3527 80.6323 9.96161 80.8624C9.44603 81.1809 8.96601 80.7562 9.12602 80.1545C9.25047 79.6413 9.71271 79.5174 10.0861 79.8891ZM49.3235 80.7385C48.9146 81.1986 48.6657 81.1809 48.3634 80.7031C48.1501 80.3669 48.1679 80.2784 48.5234 79.9952C48.9323 79.659 48.9501 79.659 49.3057 80.0129C49.6435 80.3669 49.6435 80.3846 49.3235 80.7385ZM11.3306 81.7295C11.3661 81.9241 11.2595 82.2073 11.0994 82.3312C10.7439 82.632 10.2994 82.2781 10.2994 81.6764C10.2994 81.3048 10.3705 81.2517 10.7972 81.3048C11.1172 81.3402 11.295 81.464 11.3306 81.7295ZM48.1323 81.7472C48.2034 82.2604 47.6345 82.5789 47.19 82.2604C46.9767 82.1011 46.9234 81.9241 47.0123 81.641C47.1723 81.1101 48.0612 81.1809 48.1323 81.7472ZM12.824 82.9859C12.9662 83.4991 12.7884 83.7469 12.3262 83.7469C11.8639 83.7469 11.615 83.3929 11.7928 82.9505C11.935 82.5789 12.7351 82.6143 12.824 82.9859ZM46.6211 82.8974C46.7634 83.3398 46.5322 83.7469 46.1055 83.7469C45.6077 83.7469 45.4477 83.5168 45.59 83.039C45.7144 82.6497 46.4967 82.5435 46.6211 82.8974ZM44.861 84.1539C45.1277 84.3485 45.1633 84.4547 44.9855 84.7732C44.8788 84.9856 44.6299 85.1625 44.4344 85.1625C43.9899 85.1625 43.7054 84.6494 43.9188 84.2423C44.1321 83.8707 44.4344 83.8353 44.861 84.1539ZM14.4774 84.6317C14.4774 84.9856 14.3707 85.0918 13.9796 85.1272C13.6596 85.1625 13.464 85.0918 13.3929 84.9148C13.1973 84.4193 13.464 84.0654 13.9796 84.1362C14.3707 84.1716 14.4774 84.2777 14.4774 84.6317Z" fill="black"/>
<path d="M28.9492 8.98016C28.8958 9.01555 28.0958 9.13943 27.1713 9.2456C26.2646 9.33409 25.3401 9.49335 25.1445 9.58183C24.1134 10.0065 22.2644 10.9444 22.0688 11.1391C21.9444 11.263 21.7666 11.3692 21.6777 11.3692C21.4999 11.3692 18.122 14.6784 18.122 14.8553C18.122 14.9438 17.9442 15.2092 17.7309 15.457C17.0197 16.2356 16.1841 17.846 15.6685 19.4209C14.8152 21.9869 14.7263 22.6771 14.7974 25.5262C14.8507 28.3753 15.0107 29.2247 15.8285 30.9058C16.3263 31.9676 16.5041 31.6668 16.0597 30.5165C15.793 29.8617 15.7219 29.1893 15.7219 27.2958C15.7219 25.013 15.7396 24.8537 16.2374 23.8627C17.3575 21.5976 19.1176 20.0934 22.8333 18.2707C23.5267 17.9345 24.1134 17.5982 24.1312 17.5098C24.1667 17.439 24.2734 17.3859 24.3801 17.3859C24.6645 17.3859 26.5313 15.8817 27.3846 14.9438C27.8291 14.466 28.4158 13.5989 28.718 13.0326C29.3047 11.847 29.5536 11.5992 29.6781 12.0416C29.9625 12.9441 30.727 14.1298 31.7226 15.2446C32.3627 15.9525 34.1939 17.3859 34.4605 17.3859C34.5672 17.3859 34.6561 17.439 34.6561 17.5275C34.6561 17.5982 34.8161 17.7398 34.9939 17.8283C36.5051 18.5892 37.074 18.9078 37.1451 18.9962C37.1984 19.0493 37.5185 19.244 37.8563 19.4386C39.9186 20.5712 41.7142 22.3585 42.532 24.1105C42.9943 25.1191 43.0654 25.4731 43.0654 26.8534C43.0832 28.4106 42.8698 29.6494 42.372 31.1005C42.0698 31.9499 42.0698 32.1269 42.3009 31.9853C42.9054 31.6137 43.8654 28.3045 44.0254 26.0217C44.3099 21.9515 42.4076 16.6957 39.5986 13.8466C38.0696 12.2894 35.4384 10.3251 34.8872 10.3074C34.7628 10.3074 34.6561 10.2543 34.6561 10.1658C34.6561 9.98885 33.0382 9.42257 32.5404 9.42257C32.0426 9.42257 32.0604 9.77649 32.576 9.79419C32.8427 9.81188 32.8782 9.84728 32.6649 9.90037C32.5049 9.93576 32.1849 9.86497 31.9538 9.7234C31.7226 9.56414 31.047 9.33409 30.4248 9.17482C29.1981 8.87398 29.0736 8.85629 28.9492 8.98016ZM26.7268 9.68801C26.5491 9.82958 26.3001 9.95345 26.1757 9.95345C25.5712 9.97115 22.0866 12.2009 21.0021 13.2627C20.8777 13.3865 20.7177 13.4927 20.6821 13.4927C20.5043 13.4927 20.9843 12.8202 21.7488 12.0416C22.5489 11.2099 24.629 10.0596 25.7668 9.82958C26.069 9.77649 26.3535 9.65262 26.4068 9.58183C26.4602 9.49335 26.6379 9.42257 26.798 9.42257C27.0291 9.42257 27.0291 9.45796 26.7268 9.68801ZM35.0117 10.7321C35.7762 11.0683 36.3806 11.5815 37.1273 12.5548C37.8563 13.5104 37.6251 13.5281 36.6473 12.6256C35.5806 11.6346 34.5494 10.8383 34.3183 10.8383C34.2116 10.8383 34.1227 10.7498 34.1227 10.6613C34.1227 10.5551 34.0161 10.4843 33.8738 10.4843C33.7316 10.4843 33.5716 10.4136 33.5005 10.3251C33.3938 10.1304 34.0872 10.3074 35.0117 10.7321ZM27.7224 11.3515C27.7224 11.4399 27.6158 11.6346 27.5091 11.7585C27.2424 12.0416 26.8868 12.5902 26.7091 12.9618C26.5668 13.2803 26.4957 13.3511 25.6779 14.289C25.3401 14.6784 25.109 14.8553 25.1623 14.6784C25.2157 14.5191 25.3401 14.3775 25.429 14.3775C25.5179 14.3775 25.589 14.2536 25.589 14.0944C25.589 13.8997 25.5001 13.8466 25.2868 13.9351C24.9845 14.0413 24.5934 14.1475 24.3089 14.1829C24.2556 14.2006 23.8467 14.5545 23.4022 14.9615C22.7266 15.634 22.0333 16.0941 22.0333 15.8994C22.0333 15.864 22.1933 15.6693 22.3889 15.4393C22.8689 14.8907 22.8689 14.466 22.4066 14.7314C22.2111 14.8199 22.0333 14.9615 21.9977 15.0323C21.9622 15.1208 21.7133 15.3685 21.4288 15.6163L20.9132 16.0587L21.0377 15.5455C21.1088 15.2446 21.411 14.7845 21.6955 14.4837C21.9799 14.2006 22.2111 13.8643 22.2111 13.7758C22.2288 13.4219 23.8823 11.9 24.2378 11.9C24.2912 11.9 24.2912 12.1301 24.2378 12.4309L24.1312 12.9618L25.2512 12.4132C25.8735 12.1124 26.6735 11.7231 27.0113 11.5461C27.758 11.1391 27.7224 11.1568 27.7224 11.3515ZM31.936 11.8293C32.5227 12.2186 32.6116 12.2363 32.7005 11.9708C32.7893 11.7231 32.8427 11.7054 33.0738 11.9354C33.5183 12.3778 34.3005 12.8379 34.425 12.7141C34.4961 12.661 34.4428 12.5017 34.3361 12.3955C34.0872 12.1478 34.0516 11.9 34.2827 11.9C34.3539 11.9 34.7983 12.2363 35.2606 12.6433C35.8295 13.1388 36.2917 13.7758 36.7006 14.6253C37.0207 15.3154 37.2696 15.8994 37.2518 15.9348C37.1273 16.041 36.6117 15.7401 36.6117 15.5455C36.6117 15.2977 35.9006 14.8376 35.7584 14.9969C35.6873 15.05 35.7228 15.1562 35.8295 15.2269C36.0784 15.3862 36.3095 16.0233 36.0784 15.8817C35.9717 15.8286 35.4917 15.3331 34.9939 14.8022C34.0338 13.8112 33.7672 13.652 33.7672 14.1121C33.7672 14.2536 33.8561 14.3775 33.945 14.3775C34.0516 14.3775 34.1227 14.5014 34.1227 14.643C34.1227 14.8199 33.9094 14.6961 33.5005 14.289C32.8427 13.6343 32.4693 13.475 32.6293 13.9351C32.7005 14.0767 32.8249 14.2006 32.9316 14.2006C33.0382 14.2006 33.056 14.2536 33.0027 14.3244C32.8427 14.4837 32.1671 13.7581 32.1671 13.4396C32.1671 13.298 31.936 12.8556 31.6337 12.4663C31.1537 11.7939 30.9759 11.3692 31.1893 11.3692C31.2248 11.3692 31.5626 11.5638 31.936 11.8293ZM27.7047 12.8379C27.3846 13.245 26.958 13.7405 26.7802 13.9174C26.4424 14.2536 26.4424 14.2359 26.5668 13.8466C26.6379 13.6166 26.8691 13.2627 27.0824 13.068C27.2958 12.8556 27.6158 12.4663 27.8113 12.1655C27.9891 11.8647 28.1669 11.7408 28.2202 11.8647C28.2558 11.9708 28.0247 12.4132 27.7047 12.8379ZM31.1537 12.6964C31.2604 12.9972 31.2248 12.9972 30.9226 12.6256C30.727 12.3955 30.567 12.1301 30.567 12.0416C30.567 11.7939 31.0115 12.2894 31.1537 12.6964ZM31.6337 13.1388C31.6337 13.2273 31.5448 13.3157 31.4382 13.3157C31.3493 13.3157 31.3137 13.2273 31.3671 13.1388C31.4204 13.0326 31.5093 12.9618 31.5626 12.9618C31.5982 12.9618 31.6337 13.0326 31.6337 13.1388Z" fill="black"/>
<path d="M21.7666 22.1816C21.3755 22.2701 20.6999 22.5178 20.2554 22.7479C19.811 22.9602 19.2954 23.1726 19.0998 23.2433C18.7798 23.3495 18.762 23.3672 19.0643 23.4911C19.242 23.5619 19.9354 23.438 20.771 23.1549C21.6066 22.8717 22.5666 22.6948 23.1711 22.6948C23.9 22.6948 24.1667 22.624 24.1667 22.447C24.1667 22.0046 23.0822 21.8807 21.7666 22.1816Z" fill="black"/>
<path d="M34.9761 22.1108C34.7984 22.1462 34.6561 22.2878 34.6561 22.4116C34.6561 22.5886 35.065 22.6771 36.0429 22.7302C36.8073 22.7656 37.554 22.8894 37.6963 22.9779C37.963 23.1372 39.6341 23.7389 39.8475 23.7566C39.9186 23.7566 39.9364 23.6327 39.883 23.4911C39.8119 23.3495 39.6164 23.2257 39.4386 23.2257C39.2608 23.2257 39.1008 23.1549 39.1008 23.0664C39.1008 22.9779 38.8697 22.8541 38.5674 22.7833C38.283 22.7125 38.0341 22.6063 38.0341 22.5355C38.0341 22.217 35.7762 21.8985 34.9761 22.1108Z" fill="black"/>
<path d="M20.771 24.2697C20.5044 24.3582 19.8643 24.6591 19.3132 24.9599C18.442 25.4377 18.282 25.4731 17.9976 25.2607C17.8198 25.1192 17.5709 24.9953 17.4287 24.9953C17.2509 24.9953 17.2686 25.0661 17.5175 25.243C17.6953 25.3846 17.802 25.5616 17.7309 25.6323C17.6598 25.7031 17.482 25.65 17.322 25.5262C16.9664 25.2253 16.9842 25.5085 17.3575 25.9155C17.6242 26.2163 17.6242 26.234 17.3575 26.234C17.1798 26.234 17.0553 26.3579 17.0553 26.5172C17.0553 26.7118 16.9486 26.7649 16.6642 26.6587C16.2908 26.5526 16.273 26.5702 16.5219 26.8534C16.6642 27.0304 17.1086 27.3135 17.5175 27.4905C17.9442 27.6674 18.3176 27.9683 18.3887 28.1629C18.442 28.3753 18.5665 28.5345 18.6554 28.5345C18.7265 28.5345 18.7621 28.6938 18.7087 28.8885C18.6376 29.1539 18.7087 29.2424 18.9932 29.2424C19.1887 29.2424 19.4554 29.4017 19.5799 29.5786C19.811 29.9502 20.2555 29.8794 20.2555 29.4901C20.2555 29.3486 20.131 29.1893 19.9888 29.1362C19.8465 29.0654 19.7221 28.9239 19.7221 28.8C19.7221 28.6761 19.5799 28.3222 19.4199 28.0213C19.1176 27.5082 19.1176 27.4551 19.4376 26.8711C19.7932 26.2163 20.3977 25.7916 20.1666 26.3579C19.7577 27.402 19.9532 28.6938 20.5933 29.1716C20.8244 29.3486 20.8244 29.4193 20.6288 29.6671C20.4866 29.8264 20.4332 30.021 20.5044 30.0918C20.5755 30.1626 20.7177 30.0741 20.8066 29.8971C21.0022 29.5609 21.5 29.4901 21.5 29.791C21.5 29.9325 21.7133 29.9679 22.1222 29.8971C22.46 29.8441 22.7445 29.8618 22.7445 29.9679C22.7445 30.0564 22.8334 30.1272 22.9222 30.1272C23.0289 30.1272 23.1 30.0033 23.1 29.8441C23.1 29.6494 23.2067 29.5963 23.4556 29.6848C23.669 29.7556 23.8112 29.7202 23.8112 29.5963C23.8112 29.4724 24.0067 29.2424 24.2379 29.0477C24.5045 28.8354 24.6823 28.4637 24.7534 28.039C24.8601 27.1896 24.629 25.827 24.3623 25.7385C24.2556 25.7031 24.1668 25.597 24.1668 25.5085C24.1668 25.3138 23.6512 24.8006 23.1178 24.4998C22.62 24.2166 21.3577 24.0928 20.771 24.2697ZM22.1755 26.1809C22.1222 26.7472 21.3933 26.995 21.2155 26.5172C21.0377 26.0571 21.2866 25.7031 21.7666 25.7031C22.1755 25.7031 22.2289 25.7739 22.1755 26.1809ZM22.4422 28.6584L23.3667 28.5522L22.78 28.8531C22.2644 29.1008 22.1222 29.1185 21.4644 28.8885C21.0555 28.7469 20.6821 28.5168 20.6466 28.393C20.5933 28.216 20.6999 28.2337 21.0377 28.4461C21.3933 28.6938 21.7311 28.7292 22.4422 28.6584Z" fill="black"/>
<path d="M35.954 24.2166C35.7407 24.2697 35.2251 24.6767 34.8339 25.1192C34.1584 25.8801 34.1228 25.9863 34.1228 27.0657C34.1228 27.7913 34.2295 28.393 34.4073 28.6938C34.7451 29.2601 35.5806 29.7733 36.1851 29.7733C36.4162 29.7733 36.6118 29.8794 36.6118 29.9856C36.6118 30.1449 36.6829 30.1272 36.8074 29.9502C36.9496 29.7556 37.0207 29.7379 37.0918 29.8971C37.2163 30.2157 37.5007 30.1803 37.5007 29.8617C37.5007 29.5255 37.8385 29.5255 37.963 29.8617C38.0341 30.0033 38.1408 30.0918 38.2297 30.0387C38.3008 29.9856 38.3363 29.8264 38.283 29.7025C38.2297 29.5609 38.2652 29.4016 38.3719 29.3309C38.4786 29.2778 38.5675 29.2955 38.5675 29.3839C38.5675 29.4901 38.6919 29.614 38.8519 29.6671C39.083 29.7556 39.1186 29.7025 39.0475 29.4193C38.9764 29.1185 39.0119 29.0831 39.4031 29.1716C39.812 29.2778 39.8297 29.2601 39.652 28.9062C39.4919 28.623 39.4919 28.5345 39.6697 28.5345C39.7942 28.5345 40.0431 28.2868 40.2031 28.0036C40.3631 27.7028 40.6476 27.4728 40.8431 27.4728C41.3054 27.4728 42.1054 27.0834 42.2121 26.7826C42.2832 26.6233 42.1943 26.5702 41.9454 26.641C41.6432 26.7118 41.5898 26.6764 41.6787 26.411C41.7676 26.1455 41.7143 26.1101 41.3765 26.1809C40.9676 26.2871 40.9676 26.2871 41.3054 25.9155C41.7143 25.4554 41.6254 24.9953 41.1987 25.42C40.8253 25.7739 40.452 25.7916 40.5942 25.4377C40.6653 25.2607 40.5764 25.1899 40.292 25.2076C40.0786 25.2253 39.5631 25.0307 39.1364 24.7652C38.3897 24.2874 36.8607 24.022 35.954 24.2166ZM36.3274 25.9863C36.4696 26.3579 36.1318 26.7649 35.6873 26.7649C35.2606 26.7649 35.0828 26.3048 35.3673 25.9686C35.6518 25.6146 36.1851 25.6323 36.3274 25.9863ZM38.8519 26.3579C39.1719 26.7826 39.1542 27.1188 38.8164 27.809C38.3186 28.8177 37.2341 29.2424 36.2385 28.8354L35.634 28.5876L36.5229 28.6761C37.323 28.7469 37.5007 28.6938 38.0163 28.2514C38.5497 27.809 38.5852 27.7028 38.5319 26.9065C38.4786 25.9686 38.5141 25.9155 38.8519 26.3579Z" fill="black"/>
<path d="M19.9888 31.4013C19.7933 31.5252 19.4021 31.826 19.0999 32.1092C18.6199 32.5516 18.5665 32.7108 18.5665 33.6664C18.5665 34.2681 18.6554 34.799 18.7621 34.8698C18.8688 34.9406 19.0466 35.1529 19.171 35.3476C19.3666 35.6484 19.3843 35.6484 19.2955 35.383C19.2243 35.1706 19.2599 35.0821 19.4021 35.1175C19.5266 35.1706 19.651 35.383 19.651 35.5953C19.6866 36.1793 19.8288 36.2324 21.2155 36.2324C22.5667 36.2324 23.3845 35.9139 22.8867 35.5776C22.7267 35.4715 22.7801 35.4538 23.029 35.5245C23.5979 35.6838 24.0601 34.6043 23.9001 33.5072C23.7401 32.4277 23.349 31.826 22.6201 31.4721C21.9267 31.1359 20.5044 31.1005 19.9888 31.4013ZM20.86 31.8083C20.7889 31.9676 20.86 32.0738 21.0378 32.0738C21.3756 32.0738 21.4289 32.7816 21.1089 32.7993C20.9311 32.7993 20.9311 32.8347 21.1089 32.9055C21.2155 32.9409 21.3222 33.1002 21.3222 33.2417C21.3222 33.3833 21.4822 33.4895 21.6778 33.4895C21.8911 33.4895 22.0334 33.3656 22.0334 33.2063C22.0334 33.0294 22.1578 32.9586 22.4245 32.994C22.7089 33.0294 22.8334 33.1886 22.869 33.6133C22.9578 34.3566 22.4423 34.4451 22.3356 33.7018C22.3 33.4364 22.2467 33.6664 22.2289 34.215C22.2111 34.9229 22.14 35.2591 21.9445 35.3299C21.8022 35.383 21.7133 35.5245 21.7489 35.6484C21.7667 35.7723 21.7667 35.8254 21.7311 35.7369C21.6778 35.6661 21.4111 35.613 21.1266 35.613C20.8066 35.613 20.6111 35.5245 20.6111 35.3653C20.6111 35.2237 20.3977 35.0644 20.131 34.9937C19.811 34.9229 19.7221 34.8344 19.8644 34.7459C20.0422 34.6397 20.0422 34.5512 19.8288 34.392C19.5444 34.1442 19.1177 34.2858 19.2777 34.5689C19.3488 34.6574 19.3132 34.7282 19.2066 34.7282C18.8332 34.7282 18.8154 34.3389 19.171 34.0734C19.4021 33.9142 19.5266 33.7018 19.4732 33.5249C19.3488 33.1532 19.7399 32.3392 20.0422 32.3215C20.1666 32.3038 20.3444 32.2861 20.4333 32.2684C20.6822 32.233 20.6466 31.7729 20.3977 31.6668C20.2733 31.6137 20.3444 31.5606 20.5577 31.5606C20.8422 31.5429 20.9311 31.6137 20.86 31.8083ZM22.8512 32.1976C22.7445 32.3038 22.2111 32.0384 22.2111 31.8791C22.2111 31.7906 22.3712 31.8083 22.5667 31.9322C22.7445 32.0561 22.8867 32.1799 22.8512 32.1976ZM19.6155 32.3215C19.5621 32.4808 19.4377 32.6047 19.3488 32.6047C19.2599 32.6047 19.1888 32.7285 19.1888 32.8701C19.1888 33.0117 19.0999 33.1355 18.9932 33.1355C18.851 33.1355 18.8688 33.224 19.011 33.401C19.2066 33.631 19.1888 33.6487 18.9399 33.5603C18.7621 33.4895 18.6732 33.3302 18.7265 33.1886C18.7799 33.0471 18.8332 32.8701 18.8332 32.7993C18.8332 32.6224 19.5621 31.8614 19.651 31.9499C19.7044 31.9853 19.6866 32.1623 19.6155 32.3215ZM22.7445 34.7459C22.7445 34.8344 22.6734 34.9052 22.5667 34.9052C22.4778 34.9052 22.3889 34.7813 22.3889 34.622C22.3889 34.4805 22.4778 34.4097 22.5667 34.4628C22.6734 34.5159 22.7445 34.6397 22.7445 34.7459ZM23.5445 34.7282C23.5979 34.8167 23.5623 34.9052 23.4734 34.9052C23.3668 34.9052 23.2779 34.8167 23.2779 34.7282C23.2779 34.622 23.3134 34.5512 23.349 34.5512C23.4023 34.5512 23.4912 34.622 23.5445 34.7282Z" fill="black"/>
<path d="M36.0784 31.419C35.3317 31.7729 35.0473 32.1269 34.8161 32.994C34.5495 33.9673 34.7984 34.976 35.4917 35.7192C36.2029 36.4978 38.1585 36.5686 38.8874 35.8431C39.0119 35.7192 39.2075 35.613 39.2964 35.613C39.3852 35.613 39.5453 35.4007 39.6519 35.1175C39.7764 34.8521 39.9364 34.4628 40.0431 34.2504C40.2386 33.8257 39.8475 32.6047 39.3141 32.003C38.603 31.2244 37.0918 30.9412 36.0784 31.419ZM39.4564 34.8167C39.3319 34.976 39.1897 35.0467 39.1541 35.0114C39.0297 34.8875 39.2786 34.5512 39.4919 34.5512C39.5986 34.5512 39.5986 34.6574 39.4564 34.8167Z" fill="black"/>
<path d="M28.1669 33.4895C28.1136 33.578 28.2202 33.6664 28.4336 33.6664C28.6469 33.6664 28.7536 33.578 28.7003 33.4895C28.6469 33.3833 28.5225 33.3125 28.4336 33.3125C28.3447 33.3125 28.2202 33.3833 28.1669 33.4895Z" fill="black"/>
<path d="M30.0336 33.4895C29.8203 33.6311 29.8381 33.6664 30.1759 33.6664C30.3892 33.6664 30.567 33.578 30.567 33.4895C30.567 33.2594 30.3714 33.2594 30.0336 33.4895Z" fill="black"/>
<path d="M28.5402 35.8785C28.3446 36.02 27.9357 36.1439 27.6157 36.1439C26.9046 36.1439 26.709 36.5509 27.2957 36.8518C27.5268 36.9933 27.7224 37.2057 27.7224 37.3473C27.7224 37.8428 28.7358 38.6214 29.3936 38.6214C30.0514 38.6214 31.1003 37.9135 31.1003 37.4711C31.1003 37.3296 31.3137 37.0641 31.5626 36.8695C32.1137 36.4271 31.9893 36.1439 31.2248 36.1439C30.9048 36.1262 30.4603 36.02 30.2114 35.8785C29.6425 35.5599 28.9669 35.5599 28.5402 35.8785Z" fill="black"/>
<path d="M21.411 41.8244C21.2155 41.8952 20.7532 41.966 20.3976 41.966C20.0243 41.9837 19.722 42.0722 19.722 42.1783C19.722 42.3022 20.0421 42.3553 20.5754 42.3199C21.0377 42.3022 21.6066 42.373 21.8555 42.4792C22.1044 42.5854 22.2111 42.6738 22.1044 42.6738C22.0155 42.6915 21.7488 42.8508 21.5355 43.0455C21.3221 43.2578 21.0377 43.3994 20.9132 43.364C20.5576 43.2932 19.722 43.5763 19.722 43.7533C19.722 43.9834 20.5576 43.9834 20.6999 43.7533C20.7532 43.6471 20.9488 43.5763 21.1088 43.5763C21.4466 43.5763 23.2778 42.0722 23.2778 41.789C23.2778 41.7005 23.0644 41.7359 22.8155 41.8421C22.4955 41.9837 22.2822 42.0014 22.0688 41.8598C21.891 41.7713 21.6066 41.7359 21.411 41.8244Z" fill="black"/>
<path d="M19.7221 42.7623L18.2109 42.957L19.5443 43.0101C20.9844 43.0632 21.6778 42.957 21.6778 42.6915C21.6778 42.5854 21.5711 42.5323 21.4644 42.5323C21.34 42.55 20.5577 42.6561 19.7221 42.7623Z" fill="black"/>
<path d="M35.7228 41.9306C35.7228 42.3199 37.8562 43.9303 38.3718 43.9303C38.9585 43.9303 38.7985 43.7002 37.9807 43.3286C37.3229 43.0278 36.4339 42.3022 36.4339 42.0545C36.4339 42.0014 36.7895 42.2137 37.2162 42.5146C37.6606 42.7977 38.0873 43.0455 38.1762 43.0455C38.2829 43.0455 38.4074 43.1516 38.4429 43.2578C38.514 43.4171 38.5496 43.4171 38.5496 43.2755C38.5674 43.1693 38.354 42.9039 38.0873 42.7092C37.8384 42.4969 37.6606 42.2845 37.714 42.2314C37.8207 42.1252 39.1541 42.7092 39.2429 42.9039C39.2785 42.9924 39.5807 43.0455 39.9185 43.0455C40.2919 43.0455 40.5052 42.9747 40.4341 42.8685C40.3808 42.7623 40.1497 42.6915 39.9185 42.6915C39.6874 42.6915 39.3318 42.5323 39.1007 42.3376C38.8696 42.1429 38.4785 41.966 38.2296 41.966C36.6828 41.8952 35.7228 41.8775 35.7228 41.9306Z" fill="black"/>
<path d="M28.8425 45.4521C28.718 45.5052 28.6114 45.7884 28.6114 46.0715C28.6114 46.3547 28.5047 46.744 28.398 46.9386C27.9891 47.5757 28.7358 48.3189 29.5536 48.1066C30.1581 47.965 30.3714 47.2395 29.9803 46.7971C29.8203 46.6201 29.7136 46.2485 29.7314 45.9653C29.767 45.5406 29.6959 45.4344 29.4114 45.3991C29.2158 45.3814 28.9492 45.4168 28.8425 45.4521ZM29.767 46.9386C29.8914 47.3456 29.5892 47.8234 29.2336 47.8234C28.878 47.8234 28.5758 47.3456 28.7003 46.9386C28.7714 46.7086 28.9669 46.5847 29.2336 46.5847C29.5003 46.5847 29.6959 46.7086 29.767 46.9386Z" fill="black"/>
<path d="M25.3935 47.8765C24.8423 48.2305 24.789 48.372 24.7357 49.2214C24.6823 50.1417 24.6823 50.1417 24.1668 50.0355C23.3489 49.8585 22.2289 50.6548 22.2111 51.4158C22.2111 52.1236 23.5089 53.8402 24.0423 53.8402C24.1312 53.8402 24.4512 53.9463 24.7534 54.0879C25.0735 54.2118 25.7668 54.4949 26.3002 54.7073L27.278 55.0789L26.4246 54.9904C25.9624 54.9196 25.3757 54.7604 25.0912 54.6188C24.8246 54.4949 24.5223 54.3711 24.3979 54.3711C24.2912 54.3711 24.1668 54.3003 24.1312 54.2295C24.1134 54.141 23.3845 53.8225 22.5311 53.5216C21.2155 53.0615 20.8955 52.9907 20.4332 53.15C19.8288 53.3624 19.5443 53.7694 19.5443 54.4241C19.5443 55.4682 20.6466 55.7868 24.3268 55.8045C27.3313 55.8398 27.3313 55.8575 24.3445 56.3176C21.9444 56.6716 21.3755 57.0078 21.6955 57.8572C21.98 58.6182 23.8823 58.6182 25.1446 57.8926C26.2469 57.2378 27.8647 56.5123 27.9714 56.6185C28.0247 56.6716 27.1358 57.3263 25.9802 58.0519C24.8423 58.7951 23.8467 59.4676 23.7578 59.5738C23.4556 59.9985 23.989 61.2726 24.469 61.2726C24.5401 61.2726 24.7712 61.5026 24.949 61.7858C25.3224 62.3167 26.4602 62.8122 27.1002 62.706C27.7225 62.6175 28.5403 61.8566 28.7714 61.1664C28.8781 60.7771 29.0381 59.6445 29.0914 58.6359C29.1803 57.0255 29.2337 56.8308 29.447 57.114C29.607 57.344 29.6781 57.9988 29.6781 59.096C29.6781 61.131 29.9981 61.9274 31.0471 62.4759C31.7938 62.883 33.0916 62.6352 33.7672 61.9804C34.1406 61.6088 34.4784 60.8125 34.4784 60.2993C34.4784 59.7153 33.5716 58.742 32.0071 57.6449C30.5848 56.6362 30.1937 56.1053 31.3315 56.707C31.7404 56.937 32.1138 57.1494 32.1671 57.2025C32.2205 57.2555 32.7538 57.5564 33.3405 57.8749C34.7806 58.6182 36.1495 58.6712 36.7896 58.0165C37.5718 57.1671 36.8429 56.6008 34.5672 56.3353C31.1004 55.9106 31.0293 55.8398 34.0517 55.8045C37.0029 55.7868 38.0696 55.5921 38.7808 54.955C39.5808 54.2472 38.7986 52.9554 37.5718 52.9554C37.0385 52.9554 34.8161 53.9463 34.6917 54.2295C34.6561 54.318 34.5317 54.3711 34.425 54.3711C34.3006 54.3711 33.9983 54.4949 33.7317 54.6188C33.4472 54.7604 32.8605 54.9373 32.3983 54.9904L31.5449 55.0966L32.256 54.7427C32.6472 54.548 33.1094 54.3888 33.2872 54.3711C33.4472 54.3711 33.5894 54.3003 33.5894 54.2118C33.5894 54.1233 33.8028 53.9994 34.0872 53.9286C35.7584 53.5216 36.8607 51.2034 35.7584 50.3717C35.4028 50.0886 34.4072 50.0532 33.9628 50.2832C33.6961 50.4425 33.6605 50.354 33.6605 49.5046C33.6783 48.3897 33.1983 47.7173 32.256 47.5403C30.816 47.2749 29.8915 48.6021 29.6603 51.2034C29.5181 53.0792 29.1625 53.9286 29.1448 52.4245C29.1448 51.345 28.6292 48.8852 28.3981 48.8852C28.327 48.8852 28.2558 48.7613 28.2558 48.6198C28.2558 48.4782 28.0603 48.1597 27.8114 47.9119C27.2069 47.3279 26.2291 47.3103 25.3935 47.8765ZM28.4336 52.1944C28.5403 52.6722 28.7359 53.3801 28.8603 53.7871C29.127 54.6542 28.8248 54.6719 28.4514 53.7871C28.3092 53.4862 28.0603 52.8846 27.8647 52.4599C27.5269 51.6989 27.5625 51.3627 27.9714 51.3627C28.1136 51.3627 28.3092 51.7343 28.4336 52.1944ZM31.1004 51.7697C31.1004 51.9998 30.9937 52.4245 30.8515 52.7076C30.7271 52.9907 30.4959 53.4862 30.3715 53.7871C30.087 54.4418 29.767 54.5834 29.9092 53.964C29.9804 53.7517 30.0693 53.2208 30.1404 52.7784C30.2115 52.336 30.3359 51.8405 30.4248 51.6635C30.656 51.2211 31.1004 51.2919 31.1004 51.7697ZM26.7802 52.743C28.0958 54.2295 28.2558 54.4241 28.2558 54.6011C28.2558 54.8312 27.8114 54.4772 26.7091 53.3624C25.8735 52.5306 25.5179 51.8936 25.9091 51.8936C25.9802 51.8936 26.3713 52.2829 26.7802 52.743ZM33.0561 52.0352C33.0561 52.2829 30.0515 55.362 30.0337 55.1143C30.0337 55.0081 29.8737 54.9019 29.6603 54.9019C29.4648 54.9019 29.3581 54.8312 29.4114 54.7073C29.4826 54.6188 29.6603 54.548 29.8204 54.5834C30.1226 54.6542 30.5493 54.2472 31.8827 52.7076C32.5227 51.9644 33.0561 51.6635 33.0561 52.0352ZM30.8871 57.4325C31.1004 57.751 31.2782 58.1227 31.2782 58.2288C31.2782 58.3527 31.3671 58.4412 31.456 58.4412C31.5627 58.4412 31.6338 58.6005 31.6338 58.7774C31.6338 58.9721 31.7227 59.1844 31.8116 59.2375C32.0249 59.3791 32.0427 60.0339 31.8293 60.0339C31.7404 60.0339 31.6338 59.8923 31.5627 59.7153C31.5093 59.5561 31.1715 58.9367 30.8337 58.3527C30.2293 57.3086 30.087 56.8485 30.3537 56.8485C30.4248 56.8485 30.656 57.114 30.8871 57.4325ZM28.6114 57.1848C28.6114 57.4856 27.118 59.8392 26.8869 59.9454C26.5669 60.0516 26.6024 59.4145 26.9224 59.149C27.0647 59.0252 27.1891 58.8482 27.1891 58.7597C27.1891 58.6712 27.278 58.512 27.3669 58.3881C28.0603 57.5741 28.2558 57.3086 28.2558 57.1671C28.2558 57.0963 28.3447 57.0255 28.4336 57.0255C28.5403 57.0255 28.6114 57.0963 28.6114 57.1848Z" fill="black"/>
<path d="M22.14 48.4782C21.9444 48.6729 22.0333 48.8852 22.3 48.8852C22.4422 48.8852 22.5666 48.8144 22.5666 48.726C22.5666 48.4959 22.2822 48.3366 22.14 48.4782Z" fill="black"/>
<path d="M36.0074 48.5129C35.9361 48.6016 35.9718 48.7258 36.0608 48.779C36.1499 48.8499 36.2746 48.8144 36.3281 48.7258C36.3993 48.6371 36.3637 48.5129 36.2746 48.4597C36.1855 48.3888 36.0608 48.4242 36.0074 48.5129Z" fill="black"/>
<path d="M20.1487 49.0091C19.9354 49.0445 19.6865 49.2745 19.5798 49.5223C19.402 49.8939 19.4198 49.947 19.7042 49.947C19.882 49.947 20.0776 49.8231 20.1487 49.6815C20.2731 49.363 21.251 49.3276 21.3754 49.6284C21.5532 50.1239 21.1443 50.4779 20.4332 50.4779C20.042 50.4779 19.722 50.4248 19.722 50.3363C19.722 50.2655 19.5087 50.2124 19.242 50.2124C18.9575 50.2124 18.4953 50.1416 18.1753 50.0885C17.713 49.9824 17.6241 50.0178 17.713 50.2124C17.7664 50.354 17.9442 50.4779 18.1397 50.4779C18.3175 50.4779 18.9042 50.584 19.4376 50.7256C20.8598 51.0972 21.6777 50.7964 21.6777 49.8939C21.6777 49.2391 21.0021 48.8498 20.1487 49.0091Z" fill="black"/>
<path d="M37.8385 49.3453C37.6429 49.5754 37.6785 49.5931 38.0696 49.5046C38.6029 49.363 38.8163 49.6108 38.6563 50.1417C38.5496 50.4779 38.4429 50.4956 37.7851 50.4071C37.1095 50.3009 37.074 50.3009 37.3584 50.5841C37.9629 51.1858 39.1007 50.7787 39.1007 49.947C39.1007 49.1861 38.3007 48.7968 37.8385 49.3453Z" fill="black"/>
<path d="M40.0252 50.5133C39.7586 50.7787 39.7586 51.1857 40.0608 51.5751C40.5586 52.2298 41.3053 51.7697 41.1986 50.8849C41.1631 50.5133 41.0386 50.3717 40.7008 50.3363C40.4519 50.3009 40.1497 50.3894 40.0252 50.5133ZM40.9497 50.8849C41.092 51.115 41.0742 51.2388 40.8786 51.3627C40.7364 51.4512 40.5408 51.5397 40.4697 51.5397C40.2564 51.5397 40.1141 51.0442 40.2386 50.7256C40.363 50.3894 40.6831 50.4602 40.9497 50.8849Z" fill="black"/>
<path d="M15.3841 52.2652C14.4419 52.9908 13.3574 55.0081 12.7707 57.114C12.6818 57.4502 12.664 57.114 12.7173 56.1761C12.7707 55.3621 12.9662 54.2649 13.1618 53.7163C13.5529 52.5484 13.5707 52.4245 13.2862 52.4245C12.9307 52.4245 11.7573 53.8579 11.2595 54.8843C10.9039 55.6452 10.815 56.0699 10.8684 56.8308C10.9217 57.7334 10.8861 57.8218 10.5483 57.8749C10.1928 57.928 9.76608 58.5474 9.76608 59.0075C9.76608 59.1137 9.96164 59.4676 10.2105 59.7684L10.6372 60.3347L10.2283 60.724C9.9972 60.9364 9.58829 61.5557 9.30383 62.1043C8.73492 63.2546 8.61047 64.6703 9.03715 65.6436C9.32161 66.3337 9.76608 66.4222 9.76608 65.7852C9.76608 65.5374 9.85497 65.3427 9.94386 65.3427C10.0505 65.3427 10.1216 65.6082 10.1216 65.9444C10.1216 67.661 11.3128 68.5989 12.2551 67.6079C12.5218 67.307 12.6107 66.9885 12.6107 66.2099C12.6107 65.6436 12.5395 65.0065 12.4506 64.7765C12.3795 64.5464 12.2551 63.6085 12.2017 62.6883C12.0951 60.9541 12.1662 61.0249 12.664 63.1307C13.1085 64.9888 13.6774 65.8736 14.4774 65.8736C15.0285 65.8736 15.2774 65.5374 15.2774 64.7588C15.2774 64.0332 14.9752 63.3785 14.1752 62.3167C13.2329 61.0779 13.6952 61.2018 14.9041 62.4936C15.9175 63.5908 16.2197 63.8032 16.6642 63.8032C17.4109 63.8032 17.7665 63.4669 17.7665 62.7591C17.7665 62.299 17.6242 62.0158 17.1264 61.5557C15.8286 60.3524 13.1262 59.4145 12.8596 60.1047C12.8062 60.2639 12.6462 60.3878 12.504 60.3878C12.2017 60.3878 11.9706 59.5384 12.2195 59.2906C12.3973 59.1137 13.144 59.2552 13.144 59.4676C13.144 59.6976 17.7487 59.3437 18.2643 59.0783C18.8687 58.7774 19.2954 58.2996 19.5088 57.7334C19.8466 56.8485 18.9576 55.9991 17.8553 56.123C17.3398 56.1938 15.9886 56.8308 15.2774 57.3794C13.784 58.5297 13.1974 58.689 14.0863 57.7334C15.1708 56.53 15.3841 55.539 14.6196 55.1497C14.2463 54.9727 14.2285 54.955 14.5307 54.5303C14.6908 54.3003 15.2774 53.6455 15.8464 53.0615C16.4153 52.4953 16.8775 51.9998 16.8775 51.9644C16.8775 51.7343 15.7753 51.9467 15.3841 52.2652Z" fill="black"/>
<path d="M42.4787 52.159C42.4787 52.3891 42.8521 52.8669 44.1321 54.2649C44.6655 54.8666 44.7366 55.0789 44.3633 55.0789C43.901 55.0789 43.741 56.2115 44.1144 56.9016C44.221 57.114 44.541 57.521 44.8077 57.8218C45.0922 58.105 45.2522 58.3704 45.1633 58.4058C45.0211 58.4589 43.421 57.4502 43.1899 57.1848C42.8876 56.8308 41.3942 56.2646 40.7186 56.2646C40.1142 56.2646 39.883 56.353 39.6164 56.6893C39.1186 57.344 39.2075 57.8395 39.9542 58.5828C40.7542 59.3791 41.252 59.503 43.581 59.503C44.4344 59.503 45.1811 59.5738 45.2344 59.6799C45.2877 59.7861 45.1633 59.8569 44.9322 59.8569C44.2388 59.8569 41.5898 61.2903 41.1098 61.9274C40.7009 62.4582 40.6831 62.5644 40.8786 63.0422C41.412 64.3163 42.2654 64.1394 43.8121 62.4582C44.4521 61.7681 45.0033 61.2549 45.0566 61.308C45.11 61.3611 44.8077 61.8743 44.381 62.4405C43.9721 63.0068 43.4743 63.8032 43.2965 64.1925C42.9943 64.8118 42.9943 64.9357 43.2076 65.325C43.6877 66.1922 44.7188 66.0329 45.2877 65.0242C45.5011 64.6526 45.7855 63.9093 45.9278 63.3784C46.07 62.8476 46.2656 62.1751 46.3722 61.892C46.5322 61.3788 46.5322 61.3965 46.55 62.1751C46.5678 62.6175 46.4434 63.3784 46.3011 63.8562C46.1589 64.334 45.9989 65.2896 45.9278 65.9798C45.8211 67.1301 45.8389 67.2716 46.2122 67.6432C46.4967 67.9264 46.7278 67.9972 47.0656 67.9087C47.8656 67.7317 48.1679 67.2008 48.1679 66.0329C48.1679 65.4666 48.2568 64.9534 48.3457 64.9003C48.4523 64.8472 48.5235 64.918 48.5235 65.0773C48.5235 65.2366 48.6479 65.6082 48.8079 65.9267L49.1101 66.4753L49.5191 65.9621C49.8746 65.5197 49.9457 65.2189 49.9457 64.2633C49.9457 62.936 49.5724 61.9981 48.6123 60.9364C47.9545 60.2285 47.8301 59.8569 48.2212 59.8569C48.5768 59.8569 48.9146 59.1137 48.8435 58.512C48.8079 58.105 48.6657 57.9634 48.2034 57.8218C47.7945 57.698 47.6523 57.5741 47.7234 57.3794C48.2745 56.0168 47.7945 54.548 46.2833 52.9907C45.3055 51.9821 45.1633 52.2829 45.7855 54.1056C45.9278 54.4949 46.07 55.4505 46.1233 56.2292C46.1589 57.0078 46.1589 57.4856 46.1056 57.2909C45.6078 55.2205 44.8255 53.5924 43.901 52.6368C43.2076 51.8936 42.4787 51.6635 42.4787 52.159ZM46.6389 59.4322C46.7456 59.7153 46.4789 60.3878 46.2478 60.3878C45.9989 60.3878 45.6789 59.9631 45.6789 59.6622C45.6789 59.1667 46.4611 58.9721 46.6389 59.4322Z" fill="black"/>
<path d="M16.8064 53.4862C16.4331 53.6101 15.953 54.9196 16.1664 55.2559C16.4864 55.7868 17.7665 54.8135 17.7665 54.0348C17.7665 53.4862 17.3931 53.2739 16.8064 53.4862ZM17.1976 54.5834C17.0731 54.9373 16.3442 54.9904 16.3442 54.6542C16.3442 54.4595 16.5042 54.3711 16.8064 54.3711C17.0909 54.3711 17.2331 54.4595 17.1976 54.5834Z" fill="black"/>
<path d="M41.0564 53.8225C41.0564 54.1056 41.1808 54.4241 41.3231 54.548C41.5009 54.7073 41.5898 54.7073 41.5898 54.5657C41.5898 54.4595 41.7142 54.3711 41.8564 54.3711C41.9987 54.3711 42.1231 54.4949 42.1231 54.6365C42.1231 54.7781 42.0342 54.9019 41.9275 54.9019C41.7853 54.9019 41.7853 54.9904 41.9453 55.1674C42.0698 55.309 42.3542 55.4328 42.6031 55.4328C42.9587 55.4328 42.9943 55.3797 42.8343 55.0966C42.7454 54.9019 42.6565 54.548 42.6565 54.3003C42.6565 53.7163 42.212 53.3093 41.572 53.3093C41.1275 53.3093 41.0564 53.3801 41.0564 53.8225Z" fill="black"/>
<path d="M38.8697 59.9631C38.7986 60.0339 38.7452 60.2285 38.7452 60.4055C38.7452 61.0249 39.7764 61.078 41.7676 60.5825C43.1899 60.2108 43.1721 60.1931 41.412 60.1401C40.772 60.1224 39.972 60.0516 39.6342 59.9631C39.2964 59.8923 38.9408 59.8923 38.8697 59.9631Z" fill="black"/>
<path d="M15.9885 60.2108C15.8996 60.2639 16.3263 60.4586 16.9308 60.6178C17.5353 60.7948 18.2109 61.0072 18.442 61.0956C19.0642 61.3611 19.4554 61.308 19.8109 60.9187C20.3621 60.2993 19.9354 60.1223 17.9264 60.1223C16.9486 60.1223 16.0774 60.1577 15.9885 60.2108Z" fill="black"/>
<path d="M25.5357 63.6262C25.4824 63.7678 25.5179 63.9801 25.589 64.104C25.7846 64.4225 26.3179 64.0155 26.1757 63.6439C26.0513 63.3254 25.6601 63.3254 25.5357 63.6262Z" fill="black"/>
<path d="M32.4694 63.6439C32.3272 63.9978 32.825 64.4048 33.0916 64.1394C33.3405 63.8916 33.145 63.3961 32.8072 63.3961C32.6827 63.3961 32.5227 63.5023 32.4694 63.6439Z" fill="black"/>
<path d="M21.4111 63.8209C21.0733 64.0686 21.0733 64.0863 21.3755 64.4225C21.8022 64.8826 22.5667 65.0773 22.7622 64.7765C22.9933 64.4402 22.9578 64.3164 22.5667 63.927C22.14 63.5023 21.8733 63.4846 21.4111 63.8209Z" fill="black"/>
<path d="M36.2384 63.8208C35.7762 64.0509 35.5629 64.7764 35.9007 64.9888C36.1318 65.1304 36.9851 64.7764 37.2874 64.4048C37.6963 63.927 36.8963 63.4846 36.2384 63.8208Z" fill="black"/>
<path d="M20.0777 64.1748C19.8466 64.4756 19.971 64.8119 20.3444 64.8119C20.6822 64.8119 20.8066 64.3341 20.5399 64.1217C20.3621 63.9801 20.2377 63.9978 20.0777 64.1748Z" fill="black"/>
<path d="M37.9985 64.1394C37.874 64.4756 38.034 64.8119 38.3007 64.8119C38.5674 64.8119 38.7274 64.4756 38.6207 64.1394C38.5674 64.0332 38.4252 63.927 38.3007 63.927C38.1763 63.927 38.034 64.0332 37.9985 64.1394Z" fill="black"/>
<path d="M28.718 64.8295C28.1491 65.272 28.1491 65.6259 28.7002 67.2008C28.9313 67.8733 29.1447 68.6342 29.1447 68.882C29.1625 69.3067 29.1802 69.3067 29.3936 68.7935C30.2825 66.7938 30.4425 65.3781 29.8203 64.8119C29.3402 64.3694 29.3047 64.3694 28.718 64.8295Z" fill="black"/>
<path d="M16.7175 65.3073C16.5575 65.6613 16.5575 65.9444 16.6998 66.2983C16.8598 66.723 16.9664 66.7761 17.5176 66.723C18.371 66.6522 18.851 65.9444 18.4776 65.2719C18.2821 64.9003 18.1043 64.8118 17.5887 64.8118C17.0198 64.8118 16.8953 64.8826 16.7175 65.3073ZM17.8376 65.2719C18.2465 65.4312 18.1932 66.1744 17.7665 66.316C17.2865 66.4576 17.0553 66.2983 17.0553 65.8028C17.0553 65.2012 17.2687 65.0596 17.8376 65.2719Z" fill="black"/>
<path d="M23.7934 65.1304C22.9044 65.7144 22.7089 66.0329 22.62 67.1124C22.5489 67.8379 22.6022 68.4396 22.8155 69.0767C23.1 69.9084 23.0822 70.4393 22.78 70.0322C22.7089 69.9261 22.2466 69.6429 21.7488 69.3598C19.6687 68.2626 17.8909 69.112 18.2109 71.0409C18.3531 71.855 19.4554 73.1291 20.3799 73.5715C21.9266 74.3147 22.8511 74.6156 25.1445 75.1111C25.7668 75.2526 26.1224 75.4119 25.9979 75.4827C25.7846 75.6066 24.5223 75.4296 22.7444 75.0226C22.3 74.9341 21.2155 74.8102 20.3087 74.7748C18.922 74.7041 18.602 74.7571 18.2286 75.0226C17.3931 75.6243 17.7486 76.6329 18.9931 77.2523C19.6509 77.5885 22.051 77.677 22.78 77.3939C23.0111 77.3054 23.7045 77.1461 24.3445 77.0223C24.9845 76.8984 25.8023 76.7391 26.1757 76.6683C27.3313 76.4383 26.8335 76.8984 25.3934 77.3762C24.6645 77.6239 24.0067 77.8717 23.9 77.9425C23.8111 77.9956 23.4378 78.1017 23.1 78.1548C22.7622 78.2256 22.3177 78.3495 22.1222 78.438C21.9266 78.5264 21.571 78.6326 21.3221 78.6857C20.2376 78.9512 19.8287 79.836 20.4332 80.6146C20.771 81.0216 20.9488 81.0924 21.7844 81.0924C22.3177 81.0924 22.7444 81.0039 22.7444 80.9154C22.7444 80.8093 22.8511 80.7385 22.9578 80.7385C23.2067 80.7385 25.109 79.4997 25.1979 79.2697C25.2334 79.1989 25.3401 79.1458 25.429 79.1458C25.5357 79.1458 25.8557 78.9158 26.1757 78.6149C26.4957 78.3318 26.8335 78.084 26.9579 78.084C27.0646 78.084 27.2069 77.9779 27.2602 77.854C27.3135 77.7478 27.3135 77.8363 27.2602 78.084C27.1891 78.3318 27.0646 78.5441 26.9935 78.5795C26.7268 78.6857 26.8157 79.2874 27.1357 79.3936C27.438 79.5174 27.7224 79.2343 27.7224 78.8273C27.7224 78.7211 27.7935 78.6149 27.8824 78.6149C27.9713 78.6149 28.0958 78.438 28.1491 78.2079C28.2736 77.7301 28.7536 77.0931 28.878 77.2346C28.9669 77.3054 28.2913 79.5705 27.9002 80.473C27.4024 81.6587 27.1891 82.5435 27.1891 83.3398C27.1891 84.1362 27.2602 84.2954 27.7402 84.7024C28.9136 85.6934 30.9404 85.0741 31.207 83.6584C31.3315 82.9328 31.1537 82.1011 30.3181 79.6944C29.9625 78.6857 29.6781 77.7124 29.6781 77.5355C29.6781 77.04 30.0159 77.1284 30.1403 77.6416C30.1937 77.8894 30.3181 78.084 30.3892 78.084C30.4781 78.084 30.5848 78.3141 30.6559 78.6149C30.727 78.8981 30.8515 79.1458 30.9404 79.1458C31.0293 79.1458 31.1004 79.2697 31.1004 79.4113C31.1004 79.7298 31.4737 79.7652 31.776 79.4644C32.096 79.1458 32.0426 78.8804 31.5448 78.4203C31.1004 77.9956 30.9759 77.7301 31.2426 77.7301C31.3137 77.7301 31.5804 77.9248 31.8471 78.1725C32.1138 78.4203 32.3804 78.6149 32.4338 78.6149C32.4871 78.6149 33.1627 79.075 33.9094 79.6236C35.7228 80.9685 35.9539 81.0924 36.7362 81.0924C37.5718 81.0747 37.9985 80.7739 38.1407 80.066C38.2296 79.6413 38.1585 79.429 37.8029 79.075C37.5362 78.8273 37.1807 78.6149 36.9851 78.6149C36.7895 78.6149 36.594 78.5441 36.5406 78.4557C36.4873 78.3849 36.0962 78.261 35.6873 78.1902C35.2783 78.1194 34.8517 78.0133 34.745 77.9425C34.6561 77.8717 34.0872 77.6593 33.5005 77.4824C32.9138 77.3054 32.2382 77.0754 32.0071 76.9515L31.5804 76.7568L32.0071 76.686C32.3982 76.6329 34.3005 76.9692 35.9184 77.3939C36.8962 77.6416 38.7985 77.5885 39.5097 77.2877C40.0786 77.0577 41.0564 76.1198 41.0564 75.8012C41.0564 75.7127 40.8964 75.4473 40.683 75.1819C40.3453 74.7395 40.2386 74.7218 38.7452 74.7218C37.874 74.7218 36.9673 74.7925 36.7362 74.881C36.4873 74.9695 35.705 75.1465 34.9939 75.2526C34.265 75.3588 33.4649 75.4827 33.1982 75.5358C32.9138 75.6066 32.7004 75.5712 32.7004 75.465C32.7004 75.3765 33.3227 75.1642 34.0872 74.9872C37.5362 74.2263 39.5808 73.0583 40.2386 71.4656C40.6475 70.4924 40.5942 69.8907 40.0608 69.3421C39.403 68.705 38.194 68.705 36.8251 69.3598C36.2739 69.6252 35.7406 69.9438 35.6695 70.0676C35.4739 70.3862 35.1895 70.3508 35.1895 70.0322C35.1895 69.8907 35.2428 69.7668 35.3317 69.7668C35.5272 69.7668 36.0784 68.1034 36.0784 67.484C36.0784 66.9354 35.6873 65.9975 35.2961 65.6082C35.1895 65.502 34.7272 65.2543 34.2472 65.0773C33.4294 64.7765 33.376 64.7765 32.6471 65.0773C32.2382 65.272 31.7048 65.6082 31.4737 65.8559C30.5492 66.8646 29.6781 69.5544 29.6781 71.4833C29.6603 72.0496 29.5892 72.8636 29.5003 73.3061C29.4292 73.7485 29.3936 74.1732 29.447 74.2617C29.5714 74.4563 30.0159 73.6777 30.0337 73.2707C30.0337 72.5982 30.8337 70.7224 31.2959 70.2623C31.9004 69.6606 32.8427 69.5898 33.3227 70.1207C33.6783 70.51 33.5538 71.2179 33.1982 70.864C32.7004 70.3685 32.0426 70.7932 31.3493 72.0673C31.1715 72.4035 30.9759 72.7221 30.9226 72.7752C30.8692 72.8283 30.6559 73.2176 30.4426 73.66C30.1581 74.2793 30.087 74.6687 30.1581 75.3411L30.247 76.2259L29.8736 75.642C29.4647 75.0049 29.2869 74.9518 28.8958 75.3411C28.5047 75.7304 28.398 75.6597 28.5225 75.1111C28.6114 74.7041 28.4336 74.2793 27.6335 72.9698C27.0824 72.0496 26.5313 71.2002 26.389 71.0763C26.0868 70.7755 25.2868 70.7578 25.1801 71.0409C25.1268 71.1648 25.0734 71.0586 25.0734 70.8109C25.0556 70.28 25.5534 69.7668 26.069 69.7668C26.709 69.7668 27.4913 70.3331 27.7935 71.0055C27.9358 71.3418 28.2025 72.2089 28.3802 72.899C28.5758 73.7131 28.7891 74.1909 28.9492 74.1909C29.4114 74.1909 28.8247 69.4129 28.1491 67.6433C27.6513 66.316 27.3669 65.9444 26.389 65.2897C25.5534 64.7234 24.4867 64.6526 23.7934 65.1304ZM25.5179 73.2353C27.6158 74.7218 27.758 74.8633 27.5091 74.9518C27.2246 75.0403 27.2424 75.0403 25.0556 73.89C23.8289 73.2353 23.3844 72.8106 23.6333 72.492C23.7578 72.3505 23.9178 72.2443 23.9889 72.2443C24.06 72.2443 24.7534 72.6867 25.5179 73.2353ZM35.0117 72.846C35.0117 73.0583 34.6205 73.3061 32.3982 74.474C31.4915 74.9518 30.9048 75.1819 30.8159 75.058C30.7626 74.9518 30.7448 74.8633 30.7626 74.8279C30.7981 74.8102 31.2426 74.5094 31.7226 74.1909C32.2204 73.8546 33.056 73.2884 33.5894 72.9344C34.3005 72.4566 34.6205 72.3151 34.7805 72.4566C34.905 72.5628 35.0117 72.7398 35.0117 72.846Z" fill="black"/>
<path d="M40.1675 65.272C39.9542 65.6613 39.9542 65.7851 40.1853 66.1922C40.5586 66.8646 41.3053 67.0947 41.7676 66.67C42.5143 65.9975 41.9809 64.8119 40.9142 64.8119C40.5586 64.8119 40.3275 64.9357 40.1675 65.272ZM41.3053 65.272C41.6787 65.4135 41.6787 66.3337 41.3231 66.4753C41.1631 66.5284 40.8964 66.4222 40.7009 66.2276C40.4164 65.9444 40.3808 65.7851 40.5231 65.5197C40.7186 65.1481 40.8609 65.095 41.3053 65.272Z" fill="black"/>
<path d="M20.3443 65.5197C20.3976 65.6082 20.6821 65.6967 20.9666 65.6967C21.251 65.6967 21.5355 65.6082 21.5888 65.5197C21.6599 65.4135 21.411 65.3427 20.9666 65.3427C20.5221 65.3427 20.2732 65.4135 20.3443 65.5197Z" fill="black"/>
<path d="M37.1451 65.5197C37.1451 65.7497 38.2119 65.7497 38.5674 65.5197C38.763 65.3958 38.603 65.3427 37.9985 65.3427C37.5185 65.3427 37.1451 65.4135 37.1451 65.5197Z" fill="black"/>
<path d="M48.7723 68.0679C48.4523 68.4573 47.6522 69.1651 46.1233 70.4215C45.2877 71.094 45.4299 71.3948 46.3544 70.917C47.4922 70.3154 48.6834 69.2182 49.1101 68.3688C49.4479 67.6963 49.2345 67.5017 48.7723 68.0679Z" fill="black"/>
<path d="M9.41052 67.8733C9.41052 68.0857 10.0861 69.2182 10.4595 69.6252C11.2062 70.4746 13.144 71.5187 13.144 71.094C13.144 70.9524 12.5751 70.4216 11.4551 69.5544C10.8684 69.0943 10.2283 68.5281 10.0328 68.2803C9.73054 67.891 9.41052 67.6963 9.41052 67.8733Z" fill="black"/>
<path d="M13.6418 68.8997C13.1973 69.1474 13.2506 69.5721 13.784 70.0499C14.3529 70.5808 14.5307 70.5808 14.744 70.0145C14.9752 69.4129 14.9752 69.3067 14.6374 68.9882C14.3174 68.6696 14.0685 68.6342 13.6418 68.8997Z" fill="black"/>
<path d="M43.7588 69.0943C43.4565 69.3952 43.4921 70.4216 43.8121 70.5454C43.9543 70.5985 44.0788 70.5808 44.0788 70.51C44.0788 70.4392 44.2566 70.2977 44.4877 70.2092C44.7721 70.0853 44.8788 69.8907 44.8788 69.5013C44.8788 69.0589 44.7899 68.9528 44.4344 68.9174C44.1855 68.882 43.8832 68.9705 43.7588 69.0943Z" fill="black"/>
<path d="M15.7574 69.8907C15.5619 70.0853 15.6152 70.7401 15.8463 70.9702C16.4508 71.5718 17.4464 70.864 17.0553 70.1207C16.8775 69.7668 16.0241 69.6252 15.7574 69.8907Z" fill="black"/>
<path d="M41.8032 69.9791C41.6787 70.103 41.5898 70.4216 41.5898 70.687C41.5898 71.1117 41.661 71.1825 42.0876 71.1825C42.7277 71.1825 43.101 70.6162 42.7988 70.1207C42.5499 69.7137 42.1232 69.6606 41.8032 69.9791Z" fill="black"/>
<path d="M11.5439 71.9257C11.5439 72.0673 11.7217 72.4212 11.9351 72.7044C12.5218 73.483 14.353 75.2526 14.5485 75.2526C14.6552 75.2526 14.7441 75.3234 14.7441 75.3942C14.7441 75.465 14.993 75.6773 15.2775 75.8366C15.9886 76.2613 15.9886 75.9074 15.2952 74.9695C14.7085 74.1732 13.2507 72.7752 13.0018 72.7752C12.8951 72.7752 12.7884 72.6513 12.7173 72.5097C12.664 72.3681 12.5218 72.2443 12.4151 72.2443C12.2906 72.2443 12.0417 72.1204 11.864 71.9434C11.5973 71.6957 11.5439 71.6957 11.5439 71.9257Z" fill="black"/>
<path d="M46.5678 72.0673C46.5678 72.1558 46.4789 72.2443 46.3723 72.2443C45.6433 72.2443 42.4076 75.642 42.781 76.0136C43.0654 76.2967 45.2878 74.4032 46.5323 72.8459C47.1723 72.0142 47.2078 71.8903 46.8345 71.8903C46.6923 71.8903 46.5678 71.9611 46.5678 72.0673Z" fill="black"/>
<path d="M16.0952 72.5274C15.9707 72.8636 16.113 73.1291 16.433 73.1291C16.5752 73.1291 16.7174 73.0583 16.7708 72.9698C16.9308 72.7221 16.6996 72.2443 16.433 72.2443C16.3085 72.2443 16.1485 72.3682 16.0952 72.5274Z" fill="black"/>
<path d="M41.7675 72.5097C41.4297 72.8991 41.8564 73.3592 42.3187 73.1114C42.4964 73.0229 42.6564 72.8637 42.6564 72.7752C42.6564 72.6867 42.4964 72.5274 42.3187 72.4389C42.0698 72.2974 41.9275 72.3151 41.7675 72.5097Z" fill="black"/>
<path d="M13.9619 77.8894C13.7841 78.1725 14.4241 79.075 15.0108 79.3935C15.3841 79.5882 15.8642 79.6767 16.4509 79.6413C17.2865 79.5882 17.322 79.5705 17.2865 79.075C17.2153 78.1371 17.1442 78.084 15.9886 78.084C15.0108 78.084 14.9219 78.1194 14.9041 78.4733C14.9041 78.8627 14.8863 78.8627 14.7441 78.5264C14.5486 78.0309 14.0863 77.6593 13.9619 77.8894Z" fill="black"/>
<path d="M18.1221 78.1725C18.1221 78.4026 18.3176 78.8273 18.5488 79.0927C18.9043 79.4997 19.0466 79.5528 19.3132 79.3936C19.8999 79.0396 19.7755 78.668 18.9399 78.2079L18.1221 77.7478V78.1725Z" fill="black"/>
<path d="M39.4564 78.2964C39.0119 78.5087 38.6208 78.7034 38.5852 78.7211C38.4608 78.8273 39.1186 79.6767 39.3319 79.6767C39.5631 79.6767 40.5231 78.4026 40.5231 78.1017C40.5231 77.8186 40.3631 77.854 39.4564 78.2964Z" fill="black"/>
<path d="M42.7454 78.2079C41.412 78.2787 41.0564 78.491 41.0564 79.2697C41.0564 79.6413 41.1275 79.6767 42.0876 79.6767C43.1009 79.6767 43.5632 79.482 44.2921 78.7565C44.701 78.3495 44.701 78.0663 44.3099 78.1194C44.1321 78.1371 43.4387 78.1725 42.7454 78.2079Z" fill="black"/>
<path d="M32.3805 79.9421C32.2383 80.2253 31.9716 80.4376 31.6338 80.4907C31.3494 80.5615 31.1005 80.6323 31.1005 80.65C31.1005 80.9331 31.9361 82.4019 32.3983 82.9328C32.9494 83.5699 33.0739 83.6407 34.0695 83.7114C35.0118 83.7822 35.1895 83.7291 35.5985 83.3398C36.2918 82.7204 36.2563 81.8887 35.5096 81.2517C35.2073 80.9685 34.7806 80.6854 34.5851 80.6323C34.3717 80.5615 34.1762 80.4553 34.1228 80.4022C33.9628 80.1722 32.9139 79.4997 32.7539 79.4997C32.6472 79.4997 32.4872 79.6944 32.3805 79.9421Z" fill="black"/>
<path d="M25.3223 79.836C25.269 79.9244 24.789 80.2253 24.2378 80.5084C22.8511 81.2163 22.5667 81.5171 22.5667 82.3311C22.5667 83.3398 23.2245 83.8176 24.4867 83.6937C25.5535 83.5876 26.3357 82.9505 26.8691 81.7472C27.3313 80.7385 27.278 80.4553 26.6557 80.3138C26.3357 80.2607 26.1224 80.1014 26.1224 79.9421C26.1224 79.659 25.5001 79.5705 25.3223 79.836Z" fill="black"/>
<path d="M18.1221 81.8356C18.1221 82.0834 19.6866 83.2159 20.0244 83.2159C20.1311 83.2159 20.2555 83.2867 20.2911 83.3752C20.38 83.6407 22.2112 83.8353 22.2112 83.5876C22.2112 83.4814 21.9978 83.2867 21.7311 83.1629C21.4467 83.0567 21.1978 82.9151 21.1444 82.862C21.0911 82.8089 20.7 82.6143 20.2555 82.4373C19.811 82.2603 19.1888 82.0126 18.8688 81.871C18.1576 81.5702 18.1221 81.5702 18.1221 81.8356Z" fill="black"/>
<path d="M38.4784 82.2957C37.1095 82.9151 36.6117 83.2513 36.6117 83.5345C36.6117 83.6937 36.7895 83.7291 37.2873 83.6406C37.6429 83.5699 37.9806 83.4637 38.034 83.3929C38.0873 83.3221 38.3184 83.1982 38.5496 83.1275C39.0118 82.9859 39.9896 82.1896 39.9896 81.9418C39.9896 81.7118 39.6163 81.8002 38.4784 82.2957Z" fill="black"/>
<path d="M11.2417 47.1156C11.3128 47.7173 11.2773 47.8235 11.0106 47.8235C10.7972 47.8235 10.6372 48.0004 10.5661 48.372C10.3883 49.1507 10.5483 49.1861 11.1706 48.4959C11.5973 48.0358 11.7039 47.7527 11.7217 47.151C11.7217 46.5847 11.6506 46.4078 11.4373 46.4078C11.1884 46.4078 11.1528 46.5316 11.2417 47.1156Z" fill="black"/>
<path d="M9.71278 47.7704C9.46388 48.6375 9.4461 48.9914 9.57055 49.2038C9.65945 49.363 9.76612 49.1153 9.83723 48.5313C9.96168 47.6111 9.87279 47.151 9.71278 47.7704Z" fill="black"/>
<path d="M47.1012 47.4695C47.1012 48.3012 47.1545 48.5313 47.3679 48.5313C47.5101 48.5313 47.6346 48.3897 47.6346 48.2128C47.6346 47.965 47.6701 47.9473 47.8123 48.1774C47.9012 48.3189 47.9901 48.6198 47.9901 48.8321C47.9901 49.0799 48.0968 49.2391 48.2746 49.2391C48.4524 49.2391 48.5235 49.133 48.4524 48.9206C48.399 48.7613 48.3101 48.4074 48.2568 48.142C48.1679 47.8411 48.0435 47.6996 47.8835 47.7703C47.6879 47.8411 47.6346 47.6819 47.6346 47.1333C47.6346 46.6024 47.5634 46.4077 47.3679 46.4077C47.1545 46.4077 47.1012 46.6378 47.1012 47.4695Z" fill="black"/>
<path d="M49.4125 50.2124C49.1458 50.8849 49.5191 51.3627 50.3014 51.3627C51.0303 51.3627 51.5459 50.8141 51.1903 50.3894C51.0303 50.1947 50.8881 50.1947 50.5503 50.3363C50.3192 50.4425 50.1236 50.6018 50.1236 50.6902C50.1236 50.7787 50.0347 50.7964 49.928 50.7256C49.8214 50.6725 49.768 50.4602 49.8214 50.2832C49.9636 49.7523 49.608 49.6993 49.4125 50.2124Z" fill="black"/>
<path d="M5.69474 53.3801C5.35695 53.9817 5.71252 54.5834 6.33477 54.5126C6.9748 54.4418 7.2237 53.9994 6.95702 53.4155C6.69035 52.8138 5.99698 52.7961 5.69474 53.3801ZM6.5659 53.6455C6.5659 53.7517 6.49478 53.8756 6.38811 53.9286C6.29922 53.9817 6.21032 53.9109 6.21032 53.7694C6.21032 53.6101 6.29922 53.4862 6.38811 53.4862C6.49478 53.4862 6.5659 53.557 6.5659 53.6455Z" fill="black"/>
<path d="M51.7769 53.0792C51.6524 53.1146 51.5458 53.4332 51.5458 53.7517C51.5458 54.2118 51.6347 54.3534 51.9725 54.4419C52.8614 54.6542 53.3414 54.0879 52.8792 53.3801C52.6125 52.9731 52.2569 52.8846 51.7769 53.0792ZM52.5769 53.6986C52.4703 54.0171 52.0791 54.0702 52.0791 53.7694C52.0791 53.6101 52.2036 53.4863 52.3636 53.4863C52.5236 53.4863 52.6125 53.5747 52.5769 53.6986Z" fill="black"/>
</svg>
